<mxfile host="app.diagrams.net" agent="Mozilla/5.0 (Windows NT 10.0; Win64; x64) AppleWebKit/537.36 (KHTML, like Gecko) Chrome/137.0.0.0 Safari/537.36" version="27.1.6">
  <diagram name="第 1 页" id="HAdn46INqDcis-J9iEBW">
    <mxGraphModel dx="815" dy="425" grid="1" gridSize="10" guides="1" tooltips="1" connect="1" arrows="1" fold="1" page="1" pageScale="1" pageWidth="5000" pageHeight="5000" math="0" shadow="0">
      <root>
        <mxCell id="0" />
        <mxCell id="1" parent="0" />
        <mxCell id="WGUbwcwpNBQSmtZrBVuz-1" value="" style="shape=image;verticalLabelPosition=bottom;labelBackgroundColor=default;verticalAlign=top;aspect=fixed;imageAspect=0;image=data:image/png,iVBORw0KGgoAAAANSUhEUgAAA80AAAL9CAYAAAARu4TsAAAAAXNSR0IArs4c6QAAAARnQU1BAACxjwv8YQUAAAAJcEhZcwAADsMAAA7DAcdvqGQAALctSURBVHhe7f37zyTZmd+Jvf/B/hsF5n9gwIABA4Z/MVxGVwKaXzSC11p5vQYsyTueEhatSi1try/thUWt4R8kaErWTHPrXc1SGhapuXINzwAqUTNsbjFH4jSr2d1ssu+XETna4TR3JoznnDgRJ55ziRN5e5/M/HyAD6reyMi4PZkR8c1zIuLmr/yVv9L94i/+YveTn/wEERERERER8Wp99uxZ99prr3U/+tGPunfffbd77733uptf//Vf7z766KNkZERERERERMRr8sMPP+wkI7948WIIzjfb7TYZEREREREREfEalYz8rW99q/vhD3/ogvPNW2+9lYyEiIiIiIiIeI1KRv7d3/3d7gc/+IEPzZ988kkykvajjz/r/tP/81e6v/mLr3Z/86H3b/wfUv/6L/xK99d/4Ze7zf/pK+49ejqIiIiIiIiIlpWM/Bu/8Rvd22+/3b3zzjvdjR4h5+vf+2H37/+H/7D7G7/45e7/+H/9te5vf/Er3f/iL/297n/6P/9/TPwf/o//k+5/8D/6he5/8j/7z9x79HQQERERERERrfu1r33NhWZpbW4Kze9/8Gn36j/9TvfLX3ne/fJ//dz9+yviP+3/Hf7+jlPGlffo6SAiIiIiIiJaV0KzdNNuDs3/9sf/rnv9g8+77Y/+u+61t3/c/ZdvbLtf+t63nN/58E+6tz/tRj/z/8p79HRKfv3rX+9+9Vd/NRkev/53/+7fHfwH/+AfdL/yK78yGRb8xje+kbxflNf0sKBML56GDCtNX5ZT5iGv58YLw8Uwrty2XNZBz1f8N//m37j3iPGy6/mWlPfH05P5xNMJ09fzRURERETE6/O3fuu3ur/39/5e96UvfSmrvCbj6Pfdtb/0S7/Uvf697yXDg/KajKOH7+pXv/rV7s0333Stzc2h+Y8++Lz7zg//XffNNz7t/tX7n7rA/Ph7r3X/9K3vdR++/Xvdp3/0D7t3f/CH3Y9+9b/p3v7gz2ZDswRKHQC1OmjKeySAhr8l7Ib/SzAMr8m/elo5cwE7TDOeXs4QnMUQXGX8EH7DDwFhHvJ/vT5iHGpl3joEB2s/LIT5hvF2Cc3xDwelZYh/IKhtG1nOlnkiIiIiIuJplVAs1+nKdbs55RFLMo5+310rofjv//2/nw3Otdd2dbfQ/P4Ymr/38efd/+d73+7+0fdec8H5H37vW9033/ts0uLcEppzoTUYgmc8LA7J+m8dmnXAlKAX/x3PXwfXML14mjKOnn8YT14LQbIUmsO4cz8W6OUO1kKzGNZZxtMt87G5dYgDfdyKXpq/zCs3nfBjRdh2+nVERERERLxbpTV57mbQMo4eZsFcOM4NO4Rf+cpXuj/6oz/qXn/99fbQLN2zJTT/yzc+7f6r7/+b7h+50Pzt7jsf/En31id/0b316V8sDs060Gnj0Jzr4nyo0BymHYfnML0wj3j8OGQuCc05W1uC50KzGLbb0pZmvW3kb93arFvB5e9Sa3MpeCMiIiIi4t16zqFZjEPysQKzKF3UZTt99tlny0Lztm9p/uZ7n7qW5n/84r/tnr79Zvf+O/+q+/jFk+5H775YFJprgVK3NEsIC6GwFrhDmNPDc4b5y3zkPXHYDqE5BOc4oIdW5xAO50Jz6PpcWt9cq622FppDy3L4f1guvb65ZQjLHA+Lf4AQc63stfoRmhERERERbXruoVkMYflYgVncKTS/9e6fdm8+f6f71mtvdW9+8t93v/3OO90vv/hvu1dffKf7+lvf7X7w0U+65+9/1n3zvU+61z/+/KChOYRgCW/x+w7V0qxDuPwdTy8E4fj98XxDqCyFZhkvhNkQcON56UCasxaa9XghtJaWOZbQjIiIiIi4m/omWiX1++5SQnObi0PzZ//y292Hf+PvdB/9+/9x9+F/8Ivd+//5L3Xfe/uz7g8//HfOb73/x90rf/j/7f7X33y1+w+++cvd3/yDf9I9e+/7yXRidVDNGXeBDt2DjxGaY2VYHJpzLc2iLJu4NDSH94f1Cf/Xy6GthWaZp952JfW8CM2IiIiIiNfjuYdmk92z/+1r2+6jv/aL3acv/9+7j/6X//vu4//do+7jv75xwfltuZb5k79wgfmvfvMfu8D8V//lP+7+9vNf6/43/+rV7tsfvJVML1gLXWIInuHvEE7D+3Qw1qFZh8Wc8fzl/zJMphnCcAjMMt8QkvX8QkiW97WE5jCNODSH9+ptEFsLzdow33h5S+8PXcvjYfrvMExf0xz/HUtoRkRERES06TmH5lxIzg07hItC86f/r8cuLP/kH/1X3U/+8a92/93v/J4LztLi/NGb73YvPv6k+w+/+SsuMIt/5ztPu6+885oL0f/v7/43yfSCu4TmOOzq1lAdmnVAzAXBMF4IyzIsbkGWYBgvYxwc4+nJePJ3vLyiDs0yzTCfOHSGecrfpbBZCr16nPjHgPCesGylkBuCvvw//ACg5yn/hvWLW6dzATk3DBERERER7155nJQ8VkoPD37wwQc8cmppaP7k//JfuG7ZH//1R93n333hgrOE6I/+V7/Q/dvX3+he//hH3V/75i93D7/9lW7znafdN97/bvcf/asvuwD9f/vDX0+mFwxhrqYOzSH0tXQp1uruxWIIq/GwEHTjIKmN5y/TDdOQYfH0dGiOlyEE7RDEQ/fuUjCuhebwg0IYJ7S0h5AeB/ySYVniZdTzjJc5DMsF5NwwRERERES8eyUMSijW110H5TUZR7/vrv2lX/qlaiiW12QcPXxXZRt8/PHHLjjPhubP/slTF5r/3X/9z11wlhZn6ar98d/8O91PPvq4+/jfftb9wrf+Sfe//f3/svv/ffi6a2kOrc6/+ubvJ9MLxoEyp25pjs11DZ4LzaWQHrccx4EwBFFtCNMhBOt1CCFaTz+E/vCaDpUyHRkeWnr1fEvq6YTl1utfGh8RERERERGnLgrNP/nwo+6Tv/2KC85OaWX+a7/Y/fHv/O4wzjfe+UN3DbN0yf6roZv28692H/7xp+n0EBEREREREQ27LDSLH37kWpylq7Zc4yw3B9PjyE2/5Bpm6ZItLcwEZkRERERERDxHl4dmRERERERExCuR0IyIiIiIiIhYMITmL3/5y4RmRERERERExFhamhERERERERELEpoRERERERERC4bQ/PM///OEZkRERERERMRYWpoRERERERERCxKaEREREREREQtOQvMf//Efd4iIiIiIiIjoJTQjIiIiIiIiFiQ0IyIiIiIiIhac3D1bv4iIiIiIiIh4zdLSjIiIiIiIiFiQ0IyIiIiIiIhYUELzRx99RGhGRERERERE1BKaEREREREREQsSmhERERERERELEprxJMqF8++++273ox/96CKVdZN11OuNiIiIiIjnLaEZT6KEyj/90z/t/uzP/uwilXWTddTrjYiIiIiI5+3OofnSWg5DS6EejodTB81LU9ZRf08QEREREfG83Tk0S8j88Y9/3P3kJz+5CGVdZJ30cDyMhGZERERERDxHdw7NEhB0MDp3L3GdrHjK0Hxzc5MMmzO8Z5f3BgnNiIiIiIiXp4nQLEFFD8uZGy83bFcPuU7iIZdtqbvOu/S+0vBW9w3NcZiV/2tL49aGlV6fG7ckoRkRERER8fI8WWiuha7aay3jlYYvdek6zblkuXQIbFFPozRf/bc2fr3l/7u4b2gWZRnif/Xw0t9zw/VrtfFqEpoRERERES/Pk4VmMQSvEPrmLL2/ZRr6vS3usk7B3Dxbh9WGL7U0ndJw/br+V7++q6cIzfpfbWn43GutEpoRERERES/POwnNc8NKLhl3F3dZp2Bu2VqH1YYvUaYxp36PtjSOnk5pvJK7hmaZT2nY3L8l9XqU1O+bk9CMiIiIiHh5njQ055RwEv+r1UEmWHpPblir+6xTbr6tw2rDd7V1enq7anPT0n+3uGtoFmV+ub/n/l3iLu/REpoRERERES/POw3NcfhqCWK5cZZOo+Y+65Sbd+uw2vAW5b1LzU0j96/+f+7vFu8qNOv11tPW09xHQjMiIiIi4uUZQvOXv/zl44RmHVpKw7V6OuE9Le+tTaNm6zrl1POuqd8b3q+H7WJpOqXh+rXc//V79d8t7hOagzLfJf9q49dz6vGXSmhGRERERLw8T9rSXAtbtdfmxikNX+ou61Qzt1y5YbXhS8xNIx4293rt77npzGkpNOf+1q/tIqEZEREREfHyDKH5b/2tv3UeoTk3Xm7YLu6yTjWXLNeScXPq9++yrVpeq41Tc9/QnAu4c/9q9fC5v5dKaEZEREREvDzPpqVZXo+DW4t6GnPusk41lyzDknH1++L36r/DMP13GKa3WWn7xePHw1vdNTTHyxMPa/lXq4fP/b1UQjMiIiIi4uX5m7/5my40//zP//zpQnMchGrG48bvz02z9PcSd1knsTTPJcNzw/Y13nZz6vH036Vhre4amoMy75ZhLcP1v/r1XSU0IyIiIiJeniE0m29pzo2j/y4Na3WXdRJL81wyPDdsV2VauenlhpWGtw5r9dChOfyth5eGheHxa+FvPaw2jZqEZkRERETEy/OsQ7Melnt9ibusk1ia75LhuWFLDQFQDw+v6WGl9+XGDcNyr7V4rNCs/5/7Ww8P65sbLx5HvzYnoRkRERER8fI8WWieC12l4S3jhACkhy916ToFS/NuHa7/PqRLtk1t3Ln6zXnI0Bz/PzdO6fXcuDnDdtDD5yQ0IyIiIiJenicJzTpohVAyp35/aTqlv5e6ZJ1i9XK3qN+vp7mPpfnUjMfX75v7u8V9Q3NQ5q2HLXm91V2mQ2hGRERERLw8TxKaD2Ec1OYCYe21mqdaJ70u+vWlhu0xt11ylt4ThuVeqw0veajQbFlCMyIiIiLi5Xk2ofkUXuI6WZHQjIiIiIiI5yihOfIS18mKhGZERERERDxHF4dmCQaIu6hD5qWp1xcREREREW0aGvd03s25U2jWYQERERERERHxHCQ0IyIiIiIiIhYkNCMiIiIiIiIWJDQjIiIiIiIiFiQ0IyIiIiIiIhYkNCMiIiIiIiIWJDQjIiIiIiIiFiQ0IyIiIiIiIhbcJTR/8MEH3ccff0xoRkRERERExMuW0IyIiIiIiIhY8OpC883NTTJszvCeXd6LiIiIiIiI5+tFhOY4zMr/taVxa8NKr8+Ni4iIiIiIiJfjrqH5D/7gD+yEZrHUGjz399xw/VptPERERERERLwsdw3NplqaxbnQrP/VlobPvYaIiIiIiIiX61mH5lyY1eG49G9Jeb1F/T5ERERERES8PHcNzX/5L//luw/Nog6wOhyX/l3iLu9BRERERETE83fX0GyipVnUgVaH49K/4f+xetp6moiIiIiIiHhdnn1oDupQPPevNn49px4fERERERERL19TofnFixdV9fixOhTP/avVw+O/9Wsl9fIiIiIiIiKiTXWeK2kuNOthLeYC7ty/Wj187m9EREREREQ8T5dkz7MOzRJkg/Gwln+1evjc34iIiIiIiHieLsmeu4bmL3/5y3cfmoO5QJsb1jJc/6tfR0RERERExPN2SfbcNTQf5ZFTSxY8VgfaUvAtDQvD49fC33pYbRqIiIiIiIho3yXZc9fQbKJ7dlCH2FzQLf2th+fCcm4c/RoiIiIiIiKeh0uy58WF5lKgXRJ4a+OUAjUiIiIiIiKeh0uy566h+aOPPrITmoNzYXbu9VYPNR1EREREREQ8vUuy50WFZkRERERERMQ5l2RPQjMiIiIiIiJelUuyJ6EZERERERERr8ol2ZPQjIiIiIiIiFflkuxJaEZERERERMSrckn2JDQjIiIiIiLiVbkkexKaERERERER8apckj0JzYiIiIiIiHhVLsmehGZERERERES8KpdkT0IzIiIiIiIiXpVLsiehGREREREREa/KJdmT0IyIF+ef/MmfdK+//nr3ne98p/v2t7+NiIiIiBfsG2+84c7/9DlhzSXZk9CMiBel7DAlLL/33nvdz372s+7P//zPEREREfFClfM9Cahy/rckOC/JnoRmRLwo5ZfGDz/8MNmhIiIiIuLl+u6777qehvrcsOSS7HnWoZkumIjX4ZIuNzL+559/nuxIEREREfFylfM/yYX63LDkkux5tqGZLpiI1+HSLjcSmvU0EBEREfHylfNAfW5Yckn2PNvQTBdMxOuytcsNoRkRERHxOiU0K+mCee4+7x49eNA9eT4d/uTRo2TYUp88WHUPnjxPhu/mk+7BKl3Ous+759n5+3V+lH0N52ztckNoRkRERLxOCc1KTox39Pmj7sGD/YPprG4+T9Lh0eurm1wYfdI9uFl1j5Lhre4ScmvWlud59zw73Af31YMn3fNkWjcHDPTXZ8uOkH0DIp6t7thYOuZ4nzy46W7k+Jl5bRynPo2azx+tJtOX+T14ko6X07139ah7Xj12IiIez5ZzxeCS7ElovjZDWNXDZ3z+6EH34NGT7smTNh+s5KB+060e5QOiO7AWQrU7ISi8llOmtZIfAmTeheV8JNNcPcqv9/Pnyfij/gSmOM3iSUEIyNGwJw/6kwk9LrbasiNk34CIp9Hv5+VYt7P6mCDHieox2s+zdGz1PneheTw+1ZazHyea7zQ062nVHULzc+lZ5efRGrgREQ9hy7licEn2JDRfsM8l3OmDXCE0S9h88rx8EK6F3OU+7x6t/AHYLWMSRlVInTlgtyxbyziJblv1JxVPHnWPFh74p7/OyzrfjOFe+0hOWMrriN6WHSH7BkS8G/1+vnSs0S24OceW2vS11ml4+2Vxx5VC0HZBeS40e1tat0W9/Et/BEdE3NeWc8XgkuxJaL5gQ1CcHHxLoVkCnj6gZqalh++kHJwPNS2xb8FNgqgK4svmGVqKxy5mT+R65F1DrWz3yonQ7OvobNkRsm9AxLtx/9BcD5lpDyYdUpPx3eVK+4fmobW6uGwty4OIeHxbzhWDS7InofmClYNXcpCsheZKS+ohQ7PMK73edw8bQviy5ZcTjXAzsfi6LN9Cvss1yf7mZOnwQUJzky07QvYNiHg37hqaQ6tw3nDsyAfSQiAujhMF70WhedS/ni5nzfryISIezpZzxeCS7ElovmBNhubQ5Tme1vO0ZXhwpmu285ChWW5gtopblPXNTPrru2ScJDxH10Y/etCtwg3JnvjrrP2ds+PWb78d3AkQobnJlh0h+wZEvBt3Dc1B1ZIc3xSsdoOwOPxmj/2HDc0193kvIuIhbDlXDC7JnoTmCzY9cO4XmpNp7aC7o6dcv1s4qchZukP14EG6Zz/3NxFLWsAlCKfr/fzJg+F6ZwnESdgdQvDz7tEjme94HfcwjXibEpqbbNkRsm9AxLtxz9Csg/Hwd39PjEePKjf0Gm8qFo5P4zF919CsWsBbjlHRdJLXEBFPYMu5YnBJ9iQ0X6yFG09JC6gcJHWodAfkNBwGDxKanzwaD9TRScXzWktzf4OsWqDX08tZa2l+Ljf5kuDb/5rvWpr1csTbaniclDxyqrBNQgh+/rw/ySA0H8KWHSH7BkS8G/cLze71+DjQB9BHcXfo0nGi78U1HCvde8Pfu4bmcfruWuvSvGMJzYh4x7acKwaXZM+lofnVV1/tnj171n3zm98kNJtXwqhupS21ND+SIJ2ZRu/+oflJ9yi8vyHkLjGcaOhwq4Nu0zwL2yd2rlV+mM7kBKO/Hjq6K7gL34TmRbbsCNk3IOLxrV+HvMj+2KRvApaE6KppYB+nd+DQ3Afy1AfdE0IzIt6xLeeKwSXZc2lo/spXvtL963/9r7vvfve7hOaztCEU5mwKiq0eITTHgV4eY6VPMqS7WtMNvBq2T9O2SEIwLc2HsGVHyL4BEe/GNLjG5sKofu94LKtPa5kHDs16eLyMuos5IuKJbTlXDC7JnktD81e/+tXu+9//fvfWW28Rmk3rQljmEUnFUCgtn4/Sluledy1y4bXF6tAsXaJ1N/LB0J08M52JoRv0eNCeDbY5wwE/WY6ohXi1MDS7Fn9C8yFs2RGyb0DEu1EH36m5MDqou1erm4K5cJq07E4tzfekoVnfzAwR8cS2nCsGl2TPpaH561//evfOO++49xGaLVsKx6XhyV2iY+VEIPeeHdWhWeadORgPr2WX1/v80SP/2hB2w/D0oO+7iKet0BOL22d0UUuz+0FA1pXQfAhbdoTsGxDxbozDqX6tdFyK7IOze7/q5lwKrbX5jseY6PW4JZjQjIgXaMu5YnBJ9lwamn/913/dvee9994jNJu2FP5Kw6uhuRZqd/BgoVmCaHifGu/5kz6s+r+lhVj+9deIlaZX2z6jcpKgT04S+5Of8SRj5ppm2SbFbYDBlh0h+wZEvBOT1uKpuTCa6kNnfK2zWAqt8Xumx6W+e7d7z/j6ZBl2Dc1y88z+XCENzfXWdkTEY9tyrhhckj2Xhubf+I3fcIFZ7qBNaLZsKfyVhtdCs3SRPuQB8FCheRI0K+PJQfxBHF4rB/ShxTrtlh13zy6+PxifjAzz1S3NcpfuaPyDXLt22bbsCNk3IOJdmAubS14PDl2xo+Pi8tCca/Edb16WHMNaQ7M6tqWhOfw4rZad4xsinsiWc8Xgkuy5NDTzyKlzsRSOS8MrofnJg9z4e5gERAnNpcc8FZbXHbjjA3EtNE/XTQ7opZaA8vYZHe40/rze1Tu0bnvlOdDl8d1JBicVs7bsCNk3IOLpzQXXqbkwmjiE0hBw/fiLQ7Pq3j3Of9U9co9yLC9rbjmHIJ9rAY+vrZbX1LwJzYh4SlvOFYNLsieh+UIdfg3WIbTwnGYfTjOhWa7JLQXMXdWhuXo9bzkMT5+RHE4wVt1qpXS/2Gduiha9d9w+/pnNaXjX9t2vC8vWojwf+sFKTk78ycbBt/MF2rIjZN+AiKe171JdPI55c2F0YnxNsxs23kF7aWhOxu9/aB6OM/rvyNxyxq3f8sPxGJQz5w2THl0zvbsQEQ9sy7licEn2XBqa5Zpm6Z794YcfEpptK0FwyUHKh9Ppwc+3jqbj7mnS3ft59zw56La8dhm6lm9OKJps2RGyb0DEk5ncv6JsLozq6ZTCZdKim3F87zREh/cmAbkQnHX36tYfBdJpy7rmuokjIh7PlnPF4JLsebah+Tvf+U73+eefJxsKES9T+b637AgJzYh4Eguhs2Q5NM+3xiYtxxNVS3N0h+z6+6J7g4RLnnI9n6Sr+A6PnfTrOzN/RMQD23KuGFySPc82NL/++uvdu+++m2woRLxM5bqQN954I9kXaAnNiIiIiNcpoVn5J3/yJ661WU6kaXFGvFzl+y0/kMn3Xb73el+gJTQjIiIiXqeE5oxyAi0b5rd+67fcHcoQ8fL8xje+0X3rW99qCswil24gIiIiXp+tl/IFl2TPsw7NiIhaLt1AREREvD5bL+ULLsmeu4Tmv/SX/lL3cz/3c4RmRLQnl24gIiIiXo9LL+ULLsmeu4ZmWpoR0axcuoGIiIh4HS69lC+4JHsSmhEREREREfGqXJI9Cc2IiIiIiIh4VS7JnoRmREREREREvCqXZE9CMyIiIiIiIl6VS7InoRkRERERERGvyiXZk9CMiIiIiIiIV+WS7EloRkRERERExKtySfYkNCPiRfnpp592H3/8MSIe0Pfff7/78Y9/nHzfEHE/OWYhHtYlx6sl2ZPQjIgXo5x8fP75591f/MVfIOIBlZOE9957L/nOIeLucsxCPLxLjldLsudFhubXXn6p+8JLr3avZV7bzVe7l196qXv1NT284msvdy+99HLhPa92L31h4fSO5mvL10187bXi9n315S90L71afv0kvvZq9/LL5c+AfEZeqrx+aMP8Xn11ge49ryXTwrLyC6PsMAHgsPzpn/5p9+677ybfufNSjuWl47LX7atfvfz9rhxfXr6C9bQuxyyAw7PkeLUke+4amj/44APLofkL3ReWhg0Xcish6tWXupubl7pX1fDXSgff117uvvCFl/PTc9P6Qvfyq5nXlO7AFuYRgrgKVskPBDJeayh3y3KzfHtJ2P6CD8fp8JvuRi9T1de6V5MA68P8yzpIltY5Z9jOyXbwy5gue133Y8BkO8ly10/Agjt9JmX5S5+hUzvzI4QVOQEBOA5LTkIWK8espfvHyfv9vvilL8zsZ+W4nDmOx7760vyx4ejH5Ywh5L5W+cF6ibKes8dpV5eZcazKMQvgallyvFqSPQnN6n1DSHlNhzUJwdMQ97IcdOQAnDsIVkKzHKxk+eQgn3t9agh4hWm+6g/O0/e82r00c2IwjpcLvo32gdstWxhWOyl5rXwAm2x7pw/laeDt55usc15/ApS+f/r5eC1fQ2X6ucotoz+pmX9vb+3AvmA96/bhPhm+TF+jQm2NyAkIwHFoPgmRAKt/6KwqYVKOpZl9tVOm14fFMO2XX+5elhZh+eH2pZe8UU+e4o/Zap+ajuePieM+Xeapx/HDD3ZclvVvOAaH8wbfUy1z3HbzjMK7BPdKSM8eGzPG4fq15LxI+ZI+ju8qxywA2J3m49XC7Hnmodl3c9atkS+/9IXpwaNXDszZ4BJPLzpwxzt+d8Ca+1U2NncgDcPDgfPVtu63bsfvDsCyDpmDcz+N0C26eHCemAt84nz3tek0pvMZDlL6YCrLeXNTOaCmJyv55UtPfGJfS+b7cvL5kBOscVg4YZvOK3dykH6ufMtGfLJWOvkrh+bM5ySE7sp6Nvta4QRr4tg7IH1t6muFHhdW5AQE4DgsOQkpWdwPVu2PZ5kfI9t8bTguTPbhEvD66Q779D5ohuND7Yfxwx2X/f53brtMQm5uP6x7JuWOLaXpZZRt4bZ57Ydw5W71VTYds9rlmAVwfSw5Xi3JnucfmjM7w/yOO3Qn1tOYGroJywFzGK5+Nc61JIZ5pAdfH8r8+9NlkAN3PoznfuEOB2c5Cei7aMUH5+EgmN8usa9KcEymH89Hd0VuUQff+eUY1S3vu4XmknMnCDl1TdLPVWUZC+9Nwrg6SXN/h+7yO6znVF/H2eVz3Qa/UD3Bik17BdixdAIiP2SIuxDeu880AM6dJSchJdN9aItLjiM1G/bXs/vc4xyXW/ap02NY5pKmPUJz7pzGvd6vg6yXfj3nbvWNbTxmLbRl+96VuWNWyzGn9hrAtbPkeLUke15daE52xrnusa9J6+T4//Ra58wvy1p9AKsul7TApjfPkkA9/toqgVzCjZ/m0FVr4cHZTcdNVw9Xul+Xay3Dqen61ZZjzv4HhtzNs4Zf+PV7ShZqL2ZOFkqm61eZ7ux7e2snNrMncDXTH2iKSo8HaSXPXv+ds61l5C4snYDk/t9CbvzcMIBLZ8lJSMnifrDqPseRyLCvlZblwn6uZfmOclyOrulOe0v1rd7ux/fQ0+ll1ytucnzW5xz9+urpTKYnx1c5nrreUdP13umH5obtV3bBMWux53PMyh1f9LB9jmkA18CS49WS7ElozvwK+Vp/LY1063GtwO5aKnXAmbl2J5lmtSu2/GosLYw+JE4OeiHIyPxdt6Xx4OwOLksOzq5FUQ60/TVgvV9wrYy97tqwuPuaPtCMXd2GVlK3TaXbsw54heVosnJXb/mho3J37vSkw29HCYbT4X2X8eRHkem8XHdutxxysvWaq20a5kP98jXOfyaPGJoXvDdcO7boJEmfoBlxlxOQGrlxc8MALp0lJyFOt4+Y9mgq7ger9j/oJfvvVNedurQ/D8fK0N04ObYUzhH0jbcOfVxudHbb6X1y7djSsL/Xr7sfC9Rxz1/yFvXCm1vGmguOWTupt48Rlx6z5l4HgGXHqyXZ8wJCc3owTa89FX0X1OSA6Ix/hXzNtTzLcB98ww1Gwo1I1Lwr0wvh9OX+DstpmPPBs3y9jZ+OHLh8kN/34Nyvp1umPvhHB6nhV/LM/NNlmx6UZd3Sg1FpOUbHbTK9aUl2W01quaAVfN+DZR/SXQ8EqWP2xMCva/7zoN4T/wAz6Z4ddc2W8XY+iZipmx43nPQsml/t8393Lj0B2YV93w9wjiw5CXFm9rv5fWeuy3NsfBzxPcPScfx0/PEtdyyK9olxmJz8IN6H4cmxJvfD6qGPy22685Ha/jn8SDE5tpSPezoUa/Xrudq1jNPmgmOW+5Ei6r7szrNabhp2GcesudcBYNnxakn2vIDQnB6E8jvuwq/I4T2vysHGH3hyO+58KCwpy9WHuvhX6WS8dv31voc9OOuDcBqa/UmFft/4Wv2X7Oxy6F/tm6ZVr92c2fWa6O/OOhnWtzDHrRHhmuv85yuzrpH598ys96IQG1tflonqUoTWG75cygnIUvZ5L8A5s+QkxFkKzeoHbfcDc3VfMt2fyXOUs+PK/Er7L/da39to+KHSB+KhW/IO+9v9jsvTe6AMrfKZ+1647SP/1pZPb+/42JLp6aYDr1a/njuGtYzTpt42JftrnqPjtesRWP38RO9tGu+06mNWDkIzwDKWHK+WZE9Cs1JukBUfnMOv1r7VeQxN+mQgmb/r9hwOpGq+ckfnyd+ZZzpOlF/XZX3GG44M69J0cM4r48+G5prDQTnqsj1R/3JfuU66Fh4ba6e70Id5usdqJd2pR8c7XuvgHIVI6drenxzkP1/1bR7e85osT9Q1/iXXzV8/yqyf/g4ncc4F4VdaSsbt2radvXucgLjlK3wO9lSfgOROJnLD5gitGgDXypKTEKcOccV955xq3yr7j2S/GPcW0+/3rw83syoca3QAnPeAx+XMtkr2x4XlLk5Dje+O7+p4X1tf/XrpB49knGINKrYeswrboPhDysTzOGZp9HFH/10aBnDNLDleLcmehGY9veigEk+n9P/UcC2u3rnLQaY8n2o4Glq/8wfn8N6mg3OkDsn671mTddS2Lcf8tAq1q7WCB/sfJJLhjYa7ik5/TMnVv76u+ffk1zturah+LorWlyXW/XCi7tSZXU5t60lORvd5d/PK1HRP9QlI7mQiN6yVfd4LcM4sOQlx6hBX2w/WzOwjZTo6rOl5Fc1Mz+/P9I+r9eccH/S4nNlW6XGv8v7cNPR69q3tYXo6FGv167natYzT5sy6DfobmUp4r93XJOuZHLNicseb1mEA18yS49WS7HkBoVlfg1S7prl+kMgdiHNBuXpgkPnINPQBy4Xp8Pf0+h194Jkq4/Y7+mGa0QFm6cF5Mt3pfPcNzWkX9pbl0NPKtVpnbuQVP5pJTyuev3qO9E7KskXzmda/P3An9Z5a/Mwk78ufeC1Tn2yVTG/eNvsDTq8L2w3jZXUnL/5OsKXttav6BCR3MpEbtoR93w9wjiw5CXHqEFfbD9ZM9pFi301X9nF94J3f36npyaVC0usr95jJIYiXWjAPfFzObKt0P54es6vTSLabnBvt2dJ8tNCs17Wu67H1hf5GpXKu1/C+czlmBUrHmdzw3DCAa2bJ8WpJ9ryA0JwehPI77vFuzO5gGQ2XVkTpJqsPvPEBoS00RzdVSg5Y6TT8Djy/Dm65+mA4HAjd47H6u38mB9jGg/Ng/4ODWt90vaJ10kbLId2j0gNwy3Kk05L/x9csDa9JWNbvK9ofhJMAHlsL3uP1ZvoGcjo0h0d2DLVNfjzQ74nU29B9DtMTr6UW5xebu37fnRzM1Ey1WFhSn4DkTiZyw0rkxs0NA7h0lpyEOHWIa90vKYvv6fdD5X24mo48aurlELbSRzxOLf3geqTjcmZb5YJk9UdNPY3C8gR14NXq110djtU9u/W9yT1R5IePhmuaz+iYJdSOMbnXcsMArpklx6sl2fPMQ3N0nVLk3M63FGqmNxGZHrB04B2nLwePdB7ZA1Z0UBsOfjJe6SBYOEiG+btHBcWh9+XQlaxycM4sy/D+HUPzcA2ufr1lOdS05MZpudbPcNLhryHLvF9ZehZ1fh1L9oG44cQvdOP280jXOfcep/qcTH582CM0+21fPymSeenlnH1f/4t78fUWw48V1ev4d3PuBESfXMjfelhM7rXcMIBLZ8lJiDNzjCnuBysm9wQZ9C2v7ridfT3o92kuKEurcu7YrByPOXkPflyOt9Vwc8bxHGRsEZ9OY3Iu46ZxvLtn546drjYHCs2zxx4x90NvP7w43zM7ZuWOL3pY7ZgGAMuOV0uy55mH5rxzO+5cqEkP8OrgVAnN2SCXOzBnhuVbaOPX9cE56hbmfg3PnVBUDs7DNNKTgtxB0Y1b6pLkfr2tdXmaW47I/sAmB/3J+EmoTJd7qu85kG4Tb34dK2ZrNvf5kgO0CtWl92SmP7hXaA7bNPf5EOPP0VS3jTLzdTfGK06vXddNzp3E5ue/j/oEJFAKx6XhMWGclnEBLpUlJyHO5Jha2Q/mnmDgHO9MPRkurbvu8VL+R9vQcpy+P4wftVAW9rnSYukeXSQ/3GaXMRr30MflsK3cUxsk2I8t2i6oxSE86mYcnugwmUb4u7Ce8XRqx9Lk9YZ7iJTr22j1mBXOOXSt8+cz4jkes/TxpnTcKQ0HgGXHqyXZ82JDcy1s5IKTe48KZ/E4xdCcaRkNw9NurunzKF+NA2nmoBQfIEUdsvVyeysH5/7XYb3+9WmlIdDbd3lPhvdmt0HBXPcp9zxG/f5wgCwsj/qVX5urvRi3FE/UJyJiH/C/8IUvZAwtGunnS3dtm3Xmc9xkWNbJ8oQWmvQkYDw5UD+GuC6IB/qVPSzTvuuWUZ+AAMBhaDkJmTzBIFwTHO3T8vcbKT/BIL0rch8m3XSj43N4nnJ/bKjup2phMjwDuHgts/fgx2V3nJHjx0vusqGhVVyPN0xH9unqmdXJUzjS843YJBQvfD2nPm/ayewxK3pNnsvcX8/sLZwPcMwCuFpajlfBJdlz19D8cz/3c3ZDc9jBueuddKgJO1m1Q3YHwXCQyzzTcHIw6B+dNEwvOThOA2N6Y6ugBO7+BCJ7YytpNR0Pzv7ArA4Ok/n467X8Y4wyyxRaYfU0BseTl6n5X3FnXRKapQaTkyC/bdJ1EMNyxicWcUtF9PxLZWidmAx3LRV62/e6k7H2dSi508lELrDvZNpl8FLlBATgOCw5CTmIkxbffFieju9DeThuFe98XQvNYV7ux8NSC+Whj8t9yI66ENfCrnP4kSA/vZKum7f8cNGHztpxvTk099s9THPxcS4rxywA2J0lx6sl2XOX0Pzee+/ZbmneyfCrpBxU9AEw+4v3jHLAX3hAK1s/gEwPsIWW2EP+6tqqa4VfuA3ccsq6pjWY6oNxOtymiz8/opxsHeQE5HrkBATgOCw5Cdnf8bKn+A7X6XgZXRfnynGn7x1WfN1Zv8xnGGff43L8em2Zc2Z7YrXpWuZnWk3L15LnDb2pFq0DcswCOAJLjldLsiehGREvxk8++aR744033EkIIh5O+V69//77yXcOEXeXYxbi4V1yvFqSPQnNiHgx/vSnP+2+9KUvdV/84hcR8YDK90q+X/o7h4i7yzEL8fAuOV4tyZ6EZkRERERERLwql2RPQjMiIiIiIiJelUuyJ6EZERERERERr8ol2ZPQjIiIiIiIiFflkuxJaEZERERERMSrckn2JDQjIiIiIiLiVbkke55laP5P/7P/JyIiIiIiImKizo85W7OneLahGU6H1BDsQV1sQl1sQl1sQl1sQl1sQl3sQU3sITUhNPcSmk8LOwSbUBebUBebUBebUBebUBebUBd7UBN7EJojCc2nhR2CTaiLTaiLTaiLTaiLTaiLTaiLPaiJPQjNkYTm08IOwSbUxSbUxSbUxSbUxSbUxSbUxR7UxB6E5khC82lhh2AT6mIT6mIT6mKT09Rl221Wq26zzQ2/6W5ubrpV+uKBGOexvtWvxdx26xs/3vy4x+c0dYGlUBd7UBN7EJojCc2nhR2CTaiLTaiLTaiLTU5Rl+1m1YdRHZznQrMPsvnX8tyu9XzS0OzHybnuQlbebtvneQxOURdYDnWxBzWxB6E5ktB8Wk62Q9huulV00jBwu56cTEyRk5rSayXkPerkSeax2nRNpyluOa+oJYC6LIK6KKiLh7pkOXpd+vUcg+y0RTdvX4vtttuEgLu+LYbdeBsuCc1t2768vG3v342j1yXA92UR1EVhoC7URGGkJoTmXkLzaTnNDsGfWGR/0a/uEEIrgnzBx5MTrXx53XjuWzy/QxhbJsoWl7V1x7In1CXvuKzpfLPrcWCoS954WfX4pzi4Upe82WUdvjtq+kfguHUJgbO0HnMtzZ5JWI73766mUpd+PkOw9vPLhuzVZgjiTZ/7IfSnNr1/R45bl8AFfF/6z8DgMYtCXYq6ZdW1mFjaB+wPNck7WVZVmyN/TQjNsYTm03L8HUL/RQ7fouqOLzjdQbiTk/Ums1PxJzM77RAWfavDyZk6qToi1KVOMm6//NmDzgGhLjPcrjMB+ngnNAHqsoBh2c+8Ltvbbr0qn0y2huaAq89q0926z+y6u+23Uyk0e8Z5jB+N6d9VhtBcW4/Dc9S6OM7/+3KqfVcMdVmKWp8jQE3q+O9JtL87QUu0pdD87rvvEpqviePuEBp2aG4H0XLCEP0SN3zB6zuEbEvAzbrbLNghxMsXTqpOcQylLsvx021Z5t2hLgvpD6AtoWUfqEsrY8g7RSA4bl1GZLulm2ImNLuajdtgp9ActRSH+efrFZt7f8tn53Acty4X8H1xdTn+90NDXRaivsPHgJrU6JdfnRf7EN/y/t0gNEcSmk/LUXcI8sUNX5wdrteQL954srN8hxBwr+34K1rMxYTmC6tLwP/imV/mQ0FdFnKCX50F6tJGmIYPhsc92RSOWpdApYtzUQnAt2sfhuMTyIWh2e9z/DRDKcKJqPt7u+k2oUS5gNzP42a17tZzJ88H5Kh1uYDvyymP9THUZQkNgfMAUJMahGZC85Vx1B3CQPgyb/qTlHndF3/SSrXrDiH9UscnOlkLB8tTHkipS8bqtk+ndwyoS8biNk+ndSyoS0a93aMfMPx7LyE099tF1nenk7Q+EIdrkReF5mjeg+tuPYRm/77hpDYE5Hg5w7DE/EnyoTh+XYRz/b6oup0Q6pJR78cCw/dTv3BYqEnGuCa6Dif4oZzQHEloPi2n2CG4L2BpxzeH+wLKF3zHHYJqhYjHnf5K1xP/8qe4tNB8KXURwk6+MspBoC7zdQktbaeoR4C6zNWlPzHqh/nvy/mH5vHkbiZkhnBaqd/ilmYVeMPmHlqaN33N+heG4dGCyvIPf6vp6e/VITl2XYSz/b4MJ/36R5GZz9gBoC6VuihOdT5GTRpqMpnGaY4rhOZeQvNpOfoOIZwI6C9ZwvjlzrPbDkGGr1b9DqnfuazX/bjDdEayO4meU+2kBeqysC5N67I/1KW9LkIuKBwD6lKvi6/DeNLv5nOik5ujEWrSEmjCuMn+e9z2y0JzaJ3pu1UPNQ9BS8bp3+eWLQyfWc5hvNyyHo6j1kU45+/LEADi70dr/faDulTqEtPXKPvagaEm9Zqkx5Jxf3ksCM2RhObTctQdgtsZRF/A8GVqMfnC7bJDkP/3Jz/RFz8/bhi/fCJ5MaH5YuoyLvcpDp4CdWmpS0wIF8f93lCXSl365Y/rlJ7oHIdj1sWfvIXujHEwbTDUJZywRt2zw7/b/rV8aA7zvx3m6Sc5DVfDj0ZrP62W/dTwI+ARvzPHrMvZf19KgWxogZ4OPiTUpVKXCL//Ou4PGAFqUqlJ6TuROeYcEkJzJKH5tBxzhyAH/+mXtcb45U6Hy5dv3CFMv9B6HuOXehhW3CGEEx//ytxyXkpovoy6hIPL8XbMOajLXF1SfAg47gkOdSnVpSVIHq82x6yLJ+wHonXow+4k9PTD9P7bbat+XL9/j27I1b+nFJrlvXEXXr/J+3HDfMJ89TIWCeuTOyk+HMesy3l/X8K8y6E5GX5AqEutLoHT/BAboCaVmgz7yHGQoxSmDwShOZLQfFqOuUMI6C9a2FFMKewQ+u4i43Eq+jVtMlq6Q7hd9ycpaocQ7wSG8W/1fFL8SdX576gD51yXUwSxHNSlXpeU05zgUJdldXHzaRhvX45fF7+9432B3zd4h+1TCM1h3KFeIRit191qGLefR3JN8+2kdduXrZ/POMHJjxb6cxEv69Tj1ub4dTnv74uri16oUkA4INSlXhfHCX68iKEmlZqUwvGRvyuE5khC82m5ix1C/sufG9a/Nz7R6b+k5S/kuEMYB8U7hMx8+i+43slo3IH0yCf/AepSq4sfNx1+fKhLrS5ysJ7+kOHDWWneh4O61OqScsmh2Q9WN6vJhubw3rAdQsDtn1OajN8fAzInqKGOOoQPn/++e7ZeznxoPv6Pgcevy5l/X5Iw0H9Wjnz8py4zdRHc68ffdwWoSb0mfh8W77OO/10hNEcSmk/L3ewQ+i925gRGj5b+4tX/nRzUAvUdQrKD6XcG/qSmfrJy+aH5XOrS75QLpvM+HNSlVhc3gqpNbpzDQ13m6jLl4kOzIoTXWpDWgXcItNF7qqE53C27MD09v7vk+HW5gO9LFD705+BYUJf5uvjvcv61Y0BNWmtyuu8KoTmS0Hxa7myHkJD5IsfD+h3A5Jeu3E7BDSvtEOKdTjjZicbNzeOOoC7UpQ51iaEu11oXvy2yJ3MhpA7m6qKvX9avy3SnXaynn4HotdVqqGPxR4mwTLOfo+Ny/LrwfdkF6mKvLtTEZk0Izb2E5tNyih0CLIe62IS62IS62IS62IS62IS62IOa2IPQHEloPi3sEGxCXWxCXWxCXWxCXWxCXWxCXexBTexBaI4kNJ8Wdgg2oS42oS42oS42oS42oS42oS72oCb2IDRHEppPCzsEm1AXm1AXm1AXm1AXm1AXm1AXe1ATexCaIwnNp4Udgk2++93v6kFgAOpiE+piE+piE+piE+piD2piD6kJobmX0HxaCM02YUdtE+piE+piE+piE+piE+piD2piD2uh+f333yc0XwuEZpuwo7YJdbEJdbEJdbEJdbEJdbEHNbEHoTmS0HxaCM02YUdtE+piE+piE+piE+piE+piD2piD0JzJKH5tBCabcKO2ibUxSbUxSbUxSbUxSbUxR7UxB6E5khC82khNNuEHbVNqItNqItNqItNqItNqIs9qIk9CM2RhObTQmi2CTtqm1AXm1AXm1AXm1AXm1AXe1ATexCaIwnNp4XQbBN21DahLjahLjahLjahLjahLvagJvYgNEcSmk8Lodkm7KhtQl1sQl1sQl1sQl1sQl3sQU3sQWiOJDSfFkKzTdhR24S62IS62IS62IS62IS62IOa2IPQHFkNzbfr7ubmZnS16bbRy9vNyg9f30ZDh1e7zar02vVCaLYJO2qbUBebUBebUBebUBebUBd7UBN7EJojS6HZB+J1N4m8t+tutRlj8xCab266NBsTmnMQmm3Cjtom1MUm1MUm1MUm1MUm1MUe1MQehObIfGi+7dY3N5OAnMOF5tW6W0s41gGb0JyF0GwTdtQ2oS42oS42oS42oS42oS72oCb2IDRH1kLzXOD1oXnTbbebbpWMT2jOQWi2CTtqm1AXm1AXm1AXm1AXm1AXe1ATexCaI/OhWXpi99cxV0LvEJqjrtrj6ITmHIRmm7Cjtgl1sQl1sQl1sQl1sQl1sQc1sQehObIUmoX4muVc+I1D8xCSh27ahOYchGabsKO2CXWxCXWxCXWxCXWxCXWxBzWxB6E5shaaA0Or882qiy9znoZmNyDqpk1ozkFotgk7aptQF5tQF5tQF5tQF5tQF3tQE3sQmiNbQrNHtyRnQvOkmzahOQeh2SbsqG1CXWxCXWxCXWxCXWxCXexBTexBaI5sD83huc310DyG61W3IjQnEJptwo7aJtTFJtTFJtTFJtTFJtTFHtTEHoTmyHxolrtnT7ti57pb50Nz1E27cC30NUNotgk7aptQF5tQF5tQF5tQF5tQF3tQE3sQmiPzoVnoHzsVqZ/bXAzN8U3ECM0TCM02YUdtE+piE+piE+piE+piE+piD2piD0JzZDk0wzEgNNuEHbVNqItNqItNqItNqItNqIs9qIk9CM2RhObTQmi2CTtqm1AXm1AXm1AXm1AXm1AXe1ATexCaIwnNp4XQbBN21DahLjahLjahLjahLjahLvagJvYgNEcSmk8Lodkm7KhtQl1sQl1sQl1sQl1sQl3sQU3sQWiOJDSfFkKzTdhR24S62IS62IS62IS62IS62IOa2IPQHEloPi2EZpuwo7YJdbEJdbEJdbEJdbEJdbEHNbEHoTmS0HxaCM02YUdtE+piE+piE+piE+piE+piD2piD0JzJKH5tBCabcKO2ibUxSbUxSbUxSbUxSbUxR7UxB6E5khC82mRGsoHEBERERER0bKE5l5C82mhpdkmslMAe1AXm1AXm1AXm1AXm1AXe1ATexCaIwnNp4XQbBN21DahLjahLjahLjahLjahLvagJvYgNEcSmk8Lodkm7KhtQl1sQl1sQl1sQl1sQl3sQU3sQWiOJDSfFkKzTdhR24S62IS62IS62IS62IS62IOa2IPQHEloPi2EZpuwo7YJdbEJdbEJdbEJdbEJdbEHNbEHoTmS0HxaCM02YUdtE+piE+piE+piE+piE+piD2piD0JzJKH5tBCabcKO2ibUxSbUxSbUxSbUxSbUxR7UxB6E5khC82khNNuEHbVNqItNqItNqItNqItNqIs9qIk9CM2RhObTQmi2CTtqm1AXm1AXm1AXm1AXm1AXe1ATexCaIwnNp4XQbBN21DahLjahLjahLjahLjahLvagJvYgNEeWQvN2s+pubm6mrjbdNjfO+jYaOrzabVal164XQrNN2FHbhLrYhLrYhLrYhLrYhLrYg5rYg9AcWQ3Nk5Dch+BoWBys02xMaM5BaLYJO2qbUBebUBebUBebUBebUBd7UBN7EJoj20OzG9itooDsx1l3awnHN+tuGo8JzTkIzTZhR20T6mIT6mIT6mIT6mIT6mIPamIPQnPkotDc3XbrJDRvum0fpqcBmdCcg9BsE3bUNqEuNqEuNqEuNqEuNqEu9qAm9iA0Ry4KzS4cr7pNPzAeJ3TVHjMyoTkHodkm7KhtQl1sQl1sQl1sQl1sQl3sQU3sQWiObA/NvpU5DsHTcfqQPHTTJjTnIDTbhB21TaiLTaiLTaiLTaiLTaiLPaiJPQjNkdXQrO6evQpNzPE4cbCedNMmNOcgNNuEHbVNqItNqItNqItNqItNqIs9qIk9CM2R1dCsu2crcuOM3bQJzTkIzTZhR20T6mIT6mIT6mIT6mIT6mIPamIPQnPkoUPz2E171a0IzQmEZpuwo7YJdbEJdbEJdbEJdbEJdbEHNbEHoTny8KE56qad3FEbCM02YUdtE+piE+piE+piE+piE+piD2piD0Jz5FFCc3xNNKF5AqHZJuyobUJdbEJdbEJdbEJdbEJd7EFN7EFojiyFZjgOhGabsKO2CXWxCXWxCXWxCXWxCXWxBzWxB6E5ktB8WgjNNmFHbRPqYhPqYhPqYhPqYhPqYg9qYg9CcySh+bQQmm3Cjtom1MUm1MUm1MUm1MUm1MUe1MQeVkLzP//n/5zQfG0Qmm3Cjtom1MUm1MUm1MUm1MUm1MUe1MQehOZIQvNpITTbhB21TaiLTaiLTaiLTaiLTaiLPaiJPQjNkYTm00Jotgk7aptQF5tQF5tQF5tQF5tQF3tQE3sQmiMJzaeF0GwTdtQ2oS42oS42oS42oS42oS72oCb2IDRHEppPC6HZJuyobUJdbEJdbEJdbEJdbEJd7EFN7EFojiQ0nxapoXwAERERERERLUto7iU0nxZamm0iOwWwB3WxCXWxCXWxCXWxCXWxBzWxB6E5ktB8WgjNNmFHbRPqYhPqYhPqYhPqYhPqYg9qYg9CcySh+bQQmm3Cjtom1MUm1MUm1MUm1MUm1MUe1MQehOZIQvNpITTbhB21TaiLTaiLTaiLTaiLTaiLPaiJPQjNkYTm00Jotgk7aptQF5tQF5tQF5tQF5tQF3tQE3sQmiMJzaeF0GwTdtQ2oS42oS42oS42oS42oS72oCb2IDRHEppPC6HZJuyobUJdbEJdbEJdbEJdbEJd7EFN7EFojiQ0nxZCs03YUduEutiEutiEutiEutiEutiDmtiD0BxJaD4thGabsKO2CXWxCXWxCXWxCXWxCXWxBzWxB6E50k5o3nab1U23vpX/brrVzbqT/+a57dY3N93NTT9+ERmvNp2R7WblpjdrfYazEJptwo7aJtTFJtTFJtTFJtTFJtTFHtTEHoTmyJbQHALlarPVLzmygXO16eKx58cphObbdfq+xiC8ODTPBOKWceYgNNuEHbVNqItNqItNqItNqItNqIs9qIk9CM2R86G5D7PrdRKEhzEkTGYCcDxsfpxKaC7MN5AN5A3GPwK0BOKWceYgNNuEHbVNqItNqItNqItNqItNqIs9qIk9LIVmeY/t0OxaetfdrQuy+e7QaSAOwXccf36c3UNznj6US0BueH9z8M5tgAUQmm3Cjtom1MUm1MUm1MUm1MUm1MUe1MQehObIudB8uw5BsQ+hmdCYDcT9dcfV0DwZJwq5g6tus8l1zw6Wu17Lcq82G9c9e7NZFbuWB1pakVvGmYPQbBN21DahLjahLjahLjahLjahLvagJvYgNEdWQ3OutViCrMqf2UDs3juOOz9O1NIc07c0b9bqtUoL9BhuwzXNMu10ue8CQrNN2FHbhLrYhLrYhLrYhLrYhLrYg5rYg9AcWQvNPiRHrbl9iNattmkg7u9uHaXc+XHqoflWtfLK9PRyhOHjfOIbgcn/dXDOtW63Wm7lrkFotgk7aptQF5tQF5tQF5tQF5tQF3tQE3sQmiPLoVmHWiGEzGlgzF0PrAPt/Dg6wKprmiePocoF4L4r+WTZ1N2zK9dlC4fofj0Hodkm7KhtQl1sQl1sQl1sQl1sQl3sQU3sQWiOLIbm7KOeRuNsmbYip8yPM3cjsPH1NNzmw3wSmoVCa3kpiB8aQrNN2FHbhLrYhLrYhLrYhLrYhLrYg5rYg9AcmQ/N+nFQ9dfmA3HLONFNwaLQPAnIQ5CfBmHXwtxPO9eiHevDcqYVvQ/TevxUHcyXQWi2CTtqm1AXm1AXm1AXm1AXm1AXe1ATexCaI7OheaYbsw+vMzf5UsyOE7cuD/9X1zkPwbY1uGZamvehcvOxVgjNNmFHbRPqYhPqYhPqYhPqYhPqYg9qYg9Cc2QuNKfXBmumLbWzgbhhnMnrITRHIXWyTH2Lc9rFWnPY0OwfYzU3zzqEZpuwo7YJdbEJdbEJdbEJdbEJdbEHNbEHoTkyF5rvAgmk0xbldbd2w0rPh850sU7YNTT309ZWQn8rhGabsKO2CXWxCXWxCXWxCXWxCXWxBzWxB6E50kpovhYIzTZhR20T6mIT6mIT6mIT6mIT6mIPamIPQnMkofm0EJptwo7aJtTFJtTFJtTFJtTFJtTFHtTEHoTmSELzaSE024QdtU2oi02oi02oi02oi02oiz2oiT0IzZGE5tNCaLYJO2qbUBebUBebUBebUBebUBd7UBN7EJojCc2nhdBsE3bUNqEuNqEuNqEuNqEuNqEu9qAm9iA0RxKaTwuh2SbsqG1CXWxCXWxCXWxCXWxCXexBTexBaI4kNJ8WQrNN2FHbhLrYhLrYhLrYhLrYhLrYg5rYw1pofu+99wjN14LUUD6AiIiIiIiIliU09xKaTwstzTaRnQLYg7rYhLrYhLrYhLrYhLrYg5rYg9AcSWg+LYRmm7Cjtgl1sQl1sQl1sQl1sQl1sQc1sQehOZLQfFoIzTZhR20T6mIT6mIT6mIT6mIT6mIPamIPQnMkofm0EJptwo7aJtTFJtTFJtTFJtTFJtTFHtTEHoTmSELzaSE024QdtU2oi02oi02oi02oi02oiz2oiT0IzZGE5tNCaLYJO2qbUBebUBebUBebUBebUBd7UBN7EJojCc2nhdBsE3bUNqEuNqEuNqEuNqEuNqEu9qAm9iA0RxKaTwuh2SbsqG1CXWxCXWxCXWxCXWxCXexBTexBaI4kNJ8WQrNN2FHbhLrYhLrYhLrYhLrYhLrYg5rYg9Aced6hedttVjfd+lb+u+lWN+tO/pvntlvf3HQ3N/34RWS82nRGtpuVm96cMYRmm7Cjtgl1sQl1sQl1sQl1sQl1sQc1sQehObIUmm/XafhbbbZ6NM/tun1coWH8uUDqxy+E5sz0bxqD8OLQXE/gbpwYQrNN2FHbhLrYhLrYhLrYhLrYhLrYg5rYg9AcWQ3Nq003RFkXSnW49aH15mbVTTNv36obv9+xdPweF4L1e4RKaC5Nq2culJeM15/QfDmwo7YJdbEJdbEJdbEJdbEJdbEHNbEHoTmyOTSHYVFI9MGz1CrbB+E9xh9fOnxozhNCfbruOVqDdwyh2SbsqG1CXWxCXWxCXWxCXWxCXexBTexBaI5sD819oBxCrQ+5ult1zDQkLx0/YiY0T0Pqqttsct2zg5np98g6rzYb1z17s1lVl1WgpflyYEdtE+piE+piE+piE+piE+piD2piD0JzZHNodsE1CpyuZTcXZCPicZaOHzMTmpPc2rc0b9bqtUoL9BiAwzXNMu3cPPeD0GwTdtQ2oS42oS42oS42oS42oS72oCb2IDRHVkOzaqWdtLwWg2xEfx20z6ILx48pvrcemm9VS7AE41zrsQvMQ5iObwQm/9fzzbVu140hNNuEHbVNqItNqItNqItNqItNqIs9qIk9CM2R1dCc654dhpVahWNO1NI8BlR1TfPkMVS5ABx+HIi7bKu7Z5eCfE9LF+0YQrNN2FHbhLrYhLrYhLrYhLrYhLrYg5rYw1Jo/uEPf3guoVmH16XXKC8dP2ImNJdvBDa+nobbELj1/DKPnMreOVzIB/EahGabsKO2CXWxCXWxCXWxCXWxCXWxBzWxB6E5cvfQnGuljUlD8tLxx5dKodm/R4fmSUB2703nG6/f3F2w/TJl7u7dh2k9vjaG0GwTdtQ2oS42oS42oS42oS42oS72oCb2IDRHtodm1T07HpYE4T5g6tC9ePyeUmiOW5eH/6vrnIdgq+dZItPSvA+368mfhGabsKO2CXWxCXWxCXWxCXWxCXWxBzWxB6E5shqadatp4drdXEttYVTH0vFLoXlyA68QmqM7ZE9atvsW52xL9oTDhmZZhhhCs03YUduEutiEutiEutiEutiEutiDmtiD0BxZCs3ngATSaYvyulu7YfqZ0sM70i7WCbuG5n7a2tVmMhah2SbsqG1CXWxCXWxCXWxCXWxCXexBTexBaI4859B8jhCabcKO2ibUxSbUxSbUxSbUxSbUxR7UxB6E5khC82khNNuEHbVNqItNqItNqItNqItNqIs9qIk9CM2RhObTQmi2CTtqm1AXm1AXm1AXm1AXm1AXe1ATexCaIwnNp4XQbBN21DahLjahLjahLjahLjahLvagJvYgNEcSmk8Lodkm7KhtQl1sQl1sQl1sQl1sQl3sQU3sQWiOJDSfFkKzTdhR24S62IS62IS62IS62IS62IOa2IPQHEloPi2EZpuwo7YJdbEJdbEJdbEJdbEJdbEHNbEHoTmS0HxapIbyAURERERERLQsobmX0HxaaGm2iewUwB7UxSbUxSbUxSbUxSbUxR7UxB6E5khC82khNNuEHbVNqItNqItNqItNqItNqIs9qIk9CM2RhObTQmi2CTtqm1AXm1AXm1AXm1AXm1AXe1ATexCaIwnNp4XQbBN21DahLjahLjahLjahLjahLvagJvawFprfffddQvO1QGi2CTtqm1AXm1AXm1AXm1AXm1AXe1ATexCaIwnNp4XQbBN21DahLjahLjahLjahLjahLvagJvYgNEcSmk8Lodkm7KhtQl1sQl1sQl1sQl1sQl3sQU3sQWiOJDSfFkKzTdhR24S62IS62IS62IS62IS62IOa2IPQHEloPi2EZpuwo7YJdbEJdbEJdbEJdbEJdbEHNbEHoTkyH5pvu/XNTXez0PVtNIntplvdrLt40IC8ttp02+rwwjJMZiLjrLqNe8Ntt85NMyYs0+26uykt25Ephma3TON6rvxKtbPv+6+c4o563+267/uvnGJd4E6hLjahLjahLjahLvagJvYgNEfmQ3MFCQFz4VSQ8SYBd2S7WRVfu13f9NOPA7FneN8QyKfjjO8tEAf51vU4MNnQ3AerYZO45VwQsPZ9P+R31Ptu133fD/m6wJ1DXWxCXWxCXWxCXexBTexBaI48dGh2wVa3DvctxC7U6uG9Y4bedpuV/D0GYnmfBI250BzeWwrk1dbvE5GG5vwy+23Vsqz7vh+EdEe973bd9/0gpHUBC1AXm1AXm1AXm1AXe1ATexCaI6uhOReQc8M0pe7XDgm6+dAgoXjMGLuEZpnI1s23FtB1mD8lSWjuWx+TxXCtlGrdcuz7fnAkO+p9t+u+7wdHUhcwAXWxCXWxCXWxCXWxBzWxB6E58hihWcLtJOTGVN6/vV1HQWPH0FzDYkuz7sIbKIUuzb7vB0eyo953u+77fnAkdQETUBebUBebUBebUBd7UBN7EJojDx6ao2Aah+Zit+1gmGYmEM+H5r4rrJtWLRSXW7lPRT40Z4J/a7ja9/3gSHbU+27Xfd8PjqQuYALqYhPqYhPqYhPqYg9qYg9Cc+ROoVkH3ij0FsOxSwkSbjNBIss0NPusXArN8XuiwK6WYbXZLGuZPgKEZpskO+p9t+u+7wdHUhcwAXWxCXWxCXWxCXWxBzWxB6E5cqfQrIcVSLpnS2CYfW8IvtNW5KWhOTBdhiWh/TjsFprjlnTVot70fpgj2VE3bVfqcmySuoAJqItNqItNqItNqIs9qIk9CM2RJw3NpVbqOOi6ceJAPAbj/UPz2Gp9VyShuRSiSqFLs+/7wZHsqPfdrvu+HxxJXcAE1MUm1MUm1MUm1MUe1MQehObIo4fmEIyz75GQO31urQ65IWhPnm3bEJpvN1F38Wh6k78XrMuhSEJz7dFETcu27/tBSHfU+27Xfd8PQloXsAB1sQl1sQl1sQl1sQc1sQehOfLQoTl51FMmALtB2Za4sSu2/zOM44dPgrMjF5pX3UrCSvYa63V3OwTuNFCfgjQ0q+0iZLdNhX3fD/kd9b7bdd/3Q74ucOdQF5tQF5tQF5tQF3tQE3sQmiMPHZpjdCjdbt1dvSqtz1EITlqYc8FZheY+lMh0N0N4111hx+nI8qVB/LhkQ3MS7pcHq33ff+2UdtT7btd933/tlOoCdwt1sQl1sQl1sQl1sQc1sQehOTINzbmbGzWqQrAOzVP6+cTvkdArfxev++xD8m0fjvU85X3F+cX4buH5eRyXUmiGu4UdtU2oi02oi02oi02oi02oiz2oiT2shOavf/3rFkMzHBNCs03YUduEutiEutiEutiEutiEutiDmtiD0BxJaD4thGabsKO2CXWxCXWxCXWxCXWxCXWxBzWxB6E5ktB8WgjNNmFHbRPqYhPqYhPqYhPqYhPqYg9qYg9CcySh+bQQmm3Cjtom1MUm1MUm1MUm1MUm1MUe1MQehOZIQvNpITTbhB21TaiLTaiLTaiLTaiLTaiLPaiJPQjNkYTm00Jotgk7aptQF5tQF5tQF5tQF5tQF3tQE3sQmiMJzaeF0GwTdtQ2oS42oS42oS42oS42oS72oCb2IDRHEppPi9RQPoCIiIiIiIiWJTT3EppPCy3NNpGdAtiDutiEutiEutiEutiEutiDmtiD0BxJaD4thGabsKO2CXWxCXWxCXWxCXWxCXWxBzWxB6E5ktB8WgjNNmFHbRPqYhPqYhPqYhPqYhPqYg9qYg9CcySh+bQQmm3Cjtom1MUm1MUm1MUm1MUm1MUe1MQehOZIQvNpITTbhB21TaiLTaiLTaiLTaiLTaiLPaiJPQjNkYTm00Jotgk7aptQF5tQF5tQF5tQF5tQF3tQE3sQmiMJzaeF0GwTdtQ2oS42oS42oS42oS42oS72oCb2IDRHEppPC6HZJuyobUJdbEJdbEJdbEJdbEJd7EFN7EFojiQ0nxZCs03YUduEutiEutiEutiEutiEutiDmtjDUmh+5513zjU033brm5vuJri+nb683XSrm3WnhnrktdWm21aHq+ln5yPjrLqNe8Ntt85NMyYs0+26uykt25Ephma3TON6rvxKtbPv+6+c4o563+267/uvnGJd4E6hLjahLjahLjahLvagJvYgNEeWQ3MhtA7OhE4JCzpI92w3q+Jrt+ub7saF3zgQe4b3DYF8Os743gJxkJflq417JLKhuQ9WwyZxy7kgYO37fsjvqPfdrvu+H/J1gTuHutiEutiEutiEutiDmtiD0BxZD83T0NqCC7ZJwPYtxC7U6uG9Y4bedpuV/D3OX94nQWMuNIf3lgJ5tfX7RKShOb/Mflu1LOu+7wch3VHvu133fT8IaV3AAtTFJtTFJtTFJtTFHtTEHoTmyEOHZkep+7VDppsPDRKKx4yxS2iWiWzdfGsBXYf5U5KE5r71MVkM10rZsP33fT84kh31vtt13/eDI6kLmIC62IS62IS62IS62IOa2IPQHFkPzZmQWTAOBxJuJyE3ptItenu7joLGjqG5hsWWZt2FN1AKXZp93w+OZEe973bd9/3gSOoCJqAuNqEuNqEuNqEu9qAm9iA0R9ZD8zS0ZnHhIAqiUTCNQ3Ox23YwBOlMIJ4PzX1XWDetWigut3KfinxozgT/1nC17/vBkeyo992u+74fHEldwATUxSbUxSbUxSbUxR7UxB6E5siW0JwE4wEfVuNAXQzHLiXI+JkgkWUamn1WLoXm+D1RYFfLsNpslrVMHwFCs02SHfW+23Xf94MjqQuYgLrYhLrYhLrYhLrYg5rYg9Ac2RSaXQZIr/91wbTQ1VpIumdLYKiM7wnBd9qKvDQ0B6bLsCS0H4fdQnPckq5a1JveD3MkO+qm7Updjk1SFzABdbEJdbEJdbEJdbEHNbEHoTmyGJqHYBror3EOZ/vF1ueRJDT313mmRtMZphsC8RiM9w/NY6v1XZGE5lKIKoUuzb7vB0eyo953u+77fnAkdQETUBebUBebUBebUBd7UBN7EJoji6FZTu7TM/7o5mD1wCxMukhnW5j99JLu3ZmgPbmmuiE03278/PT0Jn/LtLPLdTyS0Fx7NFHTsu37fhDSHfW+23Xf94OQ1gUsQF1sQl1sQl1sQl3sQU3sQWiOzIfm9FplTxyac6/3oSBuRc4EYDco2xI3dsX2f4ZxasujQ/OqW0lY6YPJ9NrmdXcbtaDrQH0K0tCstouQ3TYV9n0/5HfU+27Xfd8P+brAnUNdbEJdbEJdbEJd7EFN7EFojsyGZt31uj/ZnwSAKECXQoAOpdutu6vXGGKTFrcoBCctzLngrEJzWM7VptsM4V13hR2nI8uXBvHjkg3NSbgvb9MS+77/2intqPfdrvu+/9op1QXuFupiE+piE+piE+piD2piD0JzZC40D9f9DgG33hV7aF1WiUCH5il999U4OEvolb+L1332Ifl2DPGT92e7lOcIgT83j+NSCs1wt7Cjtgl1sQl1sQl1sQl1sQl1sQc1sQehOTIXmuF4EJptwo7aJtTFJtTFJtTFJtTFJtTFHtTEHoTmSELzaSE024QdtU2oi02oi02oi02oi02oiz2oiT0IzZGE5tNCaLYJO2qbUBebUBebUBebUBebUBd7UBN7EJojCc2nhdBsE3bUNqEuNqEuNqEuNqEuNqEu9qAm9iA0RxKaTwuh2SbsqG1CXWxCXWxCXWxCXWxCXexBTexhJTR/7Wtfc6FZ3kdovhIIzTZhR20T6mIT6mIT6mIT6mIT6mIPamIPQnMkofm0EJptwo7aJtTFJtTFJtTFJtTFJtTFHtTEHoTmSELzaZEaygcQERERERHRsoTmXkLzaaGl2SayUwB7UBebUBebSF30eQPevXxfbEJd7EFN7EFojiQ0nxZCs03YUduEutiEutiE0GxTvi82oS72oCb2IDRHEppPC6HZJuyobUJdbEJdbEJotinfF5tQF3tQE3sQmiMJzaeF0GwTdtQ2oS42oS42ITTblO+LTaiLPaiJPQjNkYTm00Jotgk7aptQF5tQF5sQmm3K98Um1MUe1MQehOZIQvNpITTbhB21TaiLTaiLTQjNNuX7YhPqYg9qYg9CcySh+bQQmm3Cjtom1MUm1MUmhGab8n2xCXWxBzWxB6E5ktB8WgjNNmFHbRPqYhPqYhNCs035vtiEutiDmtiD0BxJaD4txwjNt+tVt9nqoa1su81q3d3qwTlu193NatPtPCvDHGNHTV325xh1gf2hLjYhNNuU74tNqIs9qIk9CM2R+dB8261vbrp10xl71203q+7mZgwIt+ub7qbyZj/+Tbfa3HabVRos/Ou5wOCXK/+ae2O3cq+3mM73FOjQHLbFToagJKFp2CZhG9VdRSvvlqEldF1ROKMuNtB1ARtQF5sQmm3K98Um1MUe1MQehObIbGi+ve3WEnzdSfwmf7IfheJJaI6DayE4D6F5ve7HjUJw9P44QHgaQ3MUIMaAPgzpNiuZho3QXMevb7odUuZ+qHBktk//gtsms/MhnPVQl1OxrC5wKqiLTQjNNuX7YhPqYg9qYg9Cc2Q2NDtCuNQBth++vvWBYLXpblVLcwgB6802eyI/CbLuhH/Vbfpc4aYZtXI3tfiNIyfh45xDs2yLubw14NY9/jFhGrjCdihOLwSvBa31s2HujFiyo6Yup2NJXeB0UBebEJptyvfFJtTFHtTEHoTmyHJoDoRWNelKPf5bDc0D0+BddX07BmSXIEKrcjzdxpbmJnPLe3xaQ/N0W+zCtttuoy7Bh2iJpEWTupyY1rrAaaEuNiE025Tvi02oiz2oiT0IzZHZ0Jy5FrMtNE9DcjFXuOmnwSO0Mk+cjNMYms+9pfl2PdnOS8luR20/3XjcYVayHXPzvfZwRl1OTlNd4ORQF5sQmm3K98Um1MUe1MQelkLzD37wA3uh+fZ2HYXTJaHZv7+py2kUEDRDYHBBYP4GSpNQMbwvDDqz0DwEo7EbvN9e+eXNhSsZltxQKtrW+u8wL70dk/JcczijLnfCbF3gTqAuNiE025Tvi02oiz2oiT0IzZG50OwJYdnfCGzX0Jy7Jnm96cNtcvYfBepdQsC5d8+W5R/WOwpn4TW33LlW9mm4WtKimXt/P5G0BrlhF0J1R01d7oxqXeDOoC42ITTblO+LTaiLPaiJPQjNkeXQHDhAS7NuAdZ/BzKhdy138tbBYmI9/KYtzXdLKTS75ZxsDxXOAtkfFdJwtleLZjRsst2uMJxRl7ulVBe4W6iLTQjNNuX7YhPqYg9qYg9Cc2QxNLsAK4F02uK8vh1Dw86hOXS5Vif6cav0GApK1zH3y9HPN9ei3eKpw3Qamvv1SEJPIZz1+FbLsE3ScKbXM3E2nPV1i5frqsIZdbFAWhewAHWxCaHZpnxfbEJd7EFN7EFojiyF5qSFNnP95u6hOQReHYRztIXmhEyr9WR97ohpaK4FsNprmjSc7d+imZK2ul4O0x11bdvXXtNQl33hAGoT6mITQrNN+b7YhLrYg5rYg9AcmQ/NOpCGv6fBc/fQHFrd5D1+2kmYGOblW7iXhObh/dFjrGT643T1tE5H2tJcwkY40y34uXEugfYdNXU5Je11gVNCXWxCaLYp3xebUBd7UBN7EJojs6F5EnLHwCwn5sPJehSA/bBMaJYbfsl4qtXXBYf+GtDhmuXQ3TtpDW6/pjkOEiFExKG5HzBZllOHjaOE5n6d4h8z0nC2mfzwEU82/pHhWmnfUVOXU9JeFzgl1MUmhGab8n2xCXWxBzWxB6E5Mhua+0ArJ/hji3D8sgTibd/C3J/wJ63I4rpbT67jTKcTxivHgrbu2Uk4DmMVhg83bjpxIDl4aFY/PiTrOcP4g0fYnno7XwftO2rqckra6wKnhLrYhNBsU74vNqEu9qAm9iA0R2ZDMxyNQ4dm9wNGNErTzaaCfff1bOtmizPLdk6076ipyylprwucEupiE0KzTfm+2IS62IOa2IPQHEloPi3toRlOCTtqm1AXm1AXmxCabcr3xSbUxR7UxB6E5khC82khNNuEHbVNqItNqItNCM025ftiE+piD2piD0JzJKH5tBCabcKO2ibUxSbUxSaEZpvyfbEJdbEHNbEHoTmS0HxaCM02YUdtE+piE+piE0KzTfm+2IS62IOa2IPQHEloPi2EZpuwo7YJdbEJdbEJodmmfF9sQl3sQU3sQWiOJDSfFkKzTdhR24S62IS62ITQbFO+LzahLvagJvYgNEcSmk+L1FA+gIiIiIiIiJYlNPfKhtDzweMKAAAAAABgHUuh+Yc//CGh+ZoEAAAAAACwDqG5l9B8egEAAAAAAKxDaO4lNJ9eAAAAAAAA6xCaewnNpxcAAAAAAMA6hOZeQvPpBQAAAAAAsA6huZfQfHoBAAAAAACsQ2juJTSfXgAAAAAAAOsQmnsJzacXAAAAAADAOoTmXkLz6QUAAAAAALAOobmX0Hx6AQAAAAAArENo7iU0n14AAAAAAADrEJp7ZUMgIiIiIiIianV+zNmaPcWzDM2IiIiIiIiIu7okexKaERERERER8apckj0JzYiIiIiIiHhVLsmehGZERERERES8KpdkT0IzIiIiIiIiXpVLsiehGREREREREa/KJdlzl9D89ttvE5oRERERERHxPF2SPQnNiIiIiIiIeFUuyZ7mQjMiIiIiIiLisdV5tKSp0IyIiIiIiIhoSUIzIiIiIiIiYkFCMyIiIiIiImJBQjMiIiIiIiJiQUIzIiIiIiIiYkFCMyIiIiIiImJBQjMiIiIiIiJiQUIzIiIiIiIiYkFCMyIiIiIiImJBQjMiIiIiIiJiQUIzIiIiIiIiYkFCMyIiIiIiImLBk4RmRERERERExHP1qKE5TBwRERERERHxnNV5N+fTp09daH7nnXfaQjMiIiIiIiLitUhoRkRERERERCxIaEZEREREREQsSGhGRERERERELEhoRkRERERERCxIaEZEREREREQsaCI039zcTP4tWRpv7u+SreMhIiIiIiLidXrU0ByHXG1uPP1/bem13PDcsDB8Tv0eREREREREvE6PGprFXBANf+t/tTrM5oJtPI2aevySc68jIiIiIiLi9Xj00CzGwbb275y58XLDauownVO/BxEREREREa9TU6F5LrTq1/T4Ovzq13PT0M69joiIiIiIiNfjUUNzLhTX/s39Pw6+uUCbG1YznmZJ/R5ERERERES8TheH5hcvXlTV4+dCb+lf/X/9t35ND9PhNxeC9d/a0ut6PREREREREfG81bkv506hWQ+bU4fj0r/6//pv/VppWE0dqHPq9yAiIiIiIuJl2ZptLyo06/DbEoLnXkdERERERMTLszXbHj0061CrX9fD9Thx8NX/1v5fGrbLNBAREREREfGybM22Rw3NuTCaC6V6vHhcPb4epv+fU79fv6/lNURERERERLwcW7PtUUNzUIfQXNDNvVayNH7uvbXXw7xjc+MhIiIiIiLiZdmabSU0v/XWW8cNzYiIiIiIiIiWbM22hGZERERERES8OluzLaEZERERERERr87WbEtoRkRERERExKuzNdsSmhEREREREfHqbM22hGZERERERES8OluzLaEZERERERERr87WbEtoRkRERERExKuzNdsSmhEREREREfHqbM22hGZERERERES8OluzLaEZD+qf/dmfdZ9++mn38ccfIyIimvL999/vfvzjHyfHLkREvE5bsy2hGQ+qBGYAAACrvPfee8mxSysB+7vf/W73/Pnz7tvf/jYiIp6Br7/+utt/6316zdZsS2jGgyofVAAAAKu8++67ybFLH8ckLEu4/tnPftb9+Z//OSIiGlf21x988IHbfy8Jzq3ZltCMB5XQDAAAlpkLzdJS8eGHHyYnZIiIaF/Zx0tPIb1vL9mabU8Ymp91D+/d7x4+fpZ5bR+PNN1nD7t79x92z/RwrEpoBgAAy8yFZuni9/nnnycnYoiWfP7oQffg0ZPueea1g/n8Ubd68Oi480A8sLL/ltZmvW8v2ZptTxeaJYTe3OsePvP/v3//Yff48ePUh/e7mzCenkZON92b7v7jzGvOZ93jZFrPuof3JWhH871/r7t3//EQkp89vNfd3H+cmV7Nx939e/cz87seCc0AAGCZltCsT8IQj+uT7sHqQffoyfPMa3mfP1p1Nw+e9H8/7548eVLwQbe6WXWPnutpPO8ePZB5RuM+WHWrB2MQn86jVb8uT5L5IZ5O2Y/rfXvJ1mx7stA8CaESdO8VWnFdC28mrD7LBOw+7N64lubMa48fdvfv3WRCuLROq2GP73f3HobWann9prv/UE/rXne/0qLt1vGmD83PnmWWR7zf3bvgYE1oBgAAyxCa8fQ+6R4lLbbPu0erVffABeUn3YObB92T5H0VnzxIA+2TR0lYdcF3pect+vlPwrQE7EchuMvrN641ewzgj7oHwzLr6UXzk3WR6T4vhfkH3YpgjUf0jEOzCqm7hOasfbgttjKXnAnNueV7LC3g97vHybR63Xvmw/Dj+zfux4Psul+AhGYAALAMoRnvwjS8xkFZh+bnmZCrzIVmCbqPomHSvboYxmdCs7xXh22ZZ3F64T3zYfjJgxu37LPriLij5xuadQjVf+txW0OzBNnSdKrWQ7O0GN933bfj8WvhPJ7es/Ly7Ly85yOhGQAALENoxjtRh1DX2vpoaMF1XahDa+5NPlQ+j1tr+xDu33sztv4+kWudn3fPXWDOdcsO1kOzhPwHrvt2PL7MR08nN71K6JfgrcM44oE929Asravx9cKzobn02sQ+qD4udYP210fnp1ULzY/d9dbP+uuepWW5fn3zs+6xjBem5VqkdXfwqCU6ef9lSWgGAADLEJrRgk8kkA6BVbc0l4y6RWdbmsO0pYt0LTD7aZVD85PugetO7q97luWqX9/83K3P0MLsWqQz8w8t0cn7EQ/reYbm/kZdk9DZB8jsdcjFoBtP83H3sL9xV/La4OPu/o2E9YeZLtM+NE+uWX54z4XmZw/vj4HXXX98rxp2nz2Ou1r7eSYt0m59JeD7G6Ad/E7fhiQ0AwCAZQjNeOc+f+Rag8dhudBcaa0VC6H5eX+98KNH/gZg5Tts99dUx9csP1q50Cx35h4Cr5veqhp2pQV82u080yLtArO0pj9ygXzJTc8Ql3qWodm1wkrraxKax2AsLdFD0JRAPNyQq6AL4uUgm21J1q/3rcOuK7bMW2409uxZ92zyHrkb9k1zl+psi3TmWmcJ5nIn8dpNxc5VQjMAAFiG0Iyn8/nYpVpCrLve93n35JGExukNtsbu2d4Hq5t6N+YQmp8/cdcxP5F/H/Q36XJdoP2dsWXYjTReJQG6b0V+3nfFlpD7XKYjXbvjeTUsS2S2RTpzrbMEcxfqCc94BM8vND9+6IOrDs3KSWie1V9fXAyyj9OQWnMIzclr0u3aB1t/V+yZkNu3qI934PbhWFqzs8uZa4G/AAnNAABgGUIz3omFlmG5KZbvEp3pLl1RQmcIwtKqPGm5Ta4bfu7CsJ7GOK0+NCevSbdrH2z9XbFnQq67jjqsT5h25XnS/fi57YK4j2cWmuVa4/7/ITQXHhslIfje5PFO5RZeCbD37le6cDfdbEum71ui3fQeSnfveH7+OuVJS7U8W7p/fFXa5ds/n/m+XLstodm1lutxMso0H2ZapmUHMrsONiU0AwCAZQjNeCdWQrMPrG2h+bl77NON6+pcfE6zu0lYeAazv7GYPH95Oi1pQfbzk0C8kvAtd7Uewra/TnmyPNKtXFqdb+R5zvrxVv75zA/CjwCuBVyPk9F1VdfLhrifZxaaI4stzX2rsbsO+HF0t+q8vuVWQmnlZmG5eUm368l4cu3xeJOvSUvzMx+o02uu/fOV0zA83jDM3fBseGxV+QZlLqAXupf7Vu3cs6XPQ0IzAABYhtCMd2I2NMfXMqeheXqtsL97tYRhF0Sz04vmNdudepx30tL83Adqd230pBt5uF5ah+HxhmFjy3ntOc19QE+u40Y8jJcXmvtWYQmRElwfPywEYXfDrYdj9+ghNGeCqYTOew+nYbfvBj29YZcOzdIN+2H30HWnluCslqUQ1ONlnoRmvfz9jcb08MTQzdvdwTvzunEJzQAAYBlCM96JuZA7GZaGZrn2eRp8o5uD5aYXv7ZTaJZu2I/cNdLPXcuxmoZ+bFZvvJyT0Kz0Ldr51xAP6YWF5vFmXcM1zY/7lmT9fneTrvjvfIAtz0ubC83qdT392jx7DxKaz1xCMwAAWIbQjHdiEnJ9d+axpVWHZvm70hKbTE+9psOt3OBrMl4uNKvXk2nkQ3MsoRkteFGhOQ6R443A+kdBJSFWWQuwmXmlZkJz353a3z37DkNz3zI+ea71GUloBgAAyxCa8S50N+6KW5X19cLhztNyvbDrGt3f8ToJs71DaM50gZ5c09x3q+5vuDUG3kxo7rtT+7tnE5rxfL2c0CwBNPp7+sgp6Z7ccKfqUoDV88oqofmeuz7ZXb/sbuwVz+/uQrNMw1/TnL/m2bqEZgAAsAyhGU+qu3lWfwdquSlX/1zkWvBscmlLc6KE5pW7Ptldv+xu7KWeHa2nQWjGM/EyQrPcaEtdr5s8cipch1x6dFQtwM6G5vDIqv5xUsnror8b9uRGYPJs5dI8exeH5klQD8PCNc21dbAroRkAACxDaMaTKTfUugl3x46GSYiWm2m5Vl15LnLJPmBn7kCdfR5ycDY0h5uK9WE+eV303ccnNwJzz5quTXeH0Fx5FBbirp5/aHaPYtJB0YfYpEv2s0r35CQ0+0dE3XN3vT7As4+T6ReGKYfQnLlz9sP7fYt2HMLVc50vQUIzAABYhtCMFpRALF20fVdsr+9pGBnulD28T1qr+67W6nnIE2dDc4O5VuXcMOUQmjN3zn70oG/RjkN4bT0Qd/SsQ3M5HPpHNi16vJJ7vnFmeu5xUQfo1px9frKE3cw8Ix/fvzf72KxLl9AMAACWITTj2StdvifXJyslWNdebzH3/GTX8l0PuE8erLpHpeuwEU/k+YZmvBoJzQAAYJm50CzdYj///PPkJAwREe0r+29CM5qX0AwAAJaZC83f/e533Tj6RAwREe37wQcfdK+//nqyby/Zmm0JzXhQP/nkE31+AgAAYIb33nsvOXbFyo+/0tosJ160OCMinoeyv5YfPGX/LftxvW8v2ZptQ2j+wQ9+QGjG/f3pT3/afelLX+q++MUvIiIimlKOT3/6058mxy6tnHD9wR/8Qfdbv/Vb3W/+5m8iIqJxf+d3fqf7/d///UWBWWzNtoRmREREREREvDpbsy2hGREREREREa/O1mxLaEZERERERMSrszXbEpoRERERERHx6mzNtoRmREREREREvDpbsy2hGREREREREa/O1mxLaEZERERERMSrszXbEprxoH766WfdRx9/7J6RhohoUdlHyb5K778QERHxumzNtoRmPKhyQvrTn/60+9nPfoaIaFLZR8m+Su+/EH/7t38bEREXqvel52RrtiU040GVE1E5KdXDERGtKPsoQjPmlJO/f+8/+fcQEbFRQnPB1gnjdUpoRkTrEpqxJKEZEXGZhOaCrRPG6zQfml90LzLjxq8/ffxK9/hZ42fr2dPquM+WTAv3U2rxdP9t/eLFs+5pXLNnj7tXHj+d+dwg7iahucFnD7v79x92j59lXrtgCc2IiMskNBdsnXDw8cP73cNw0A0H4cePRx/e7+7df9w9i98n4927v/PB2s3z8bPu2bNn0+nO+qx7eO9ed1/em7zW4rPu4X2Zd7R+yvv37o3b4wLNh+Zn3eNXVI2Vzx6nJ2cvXqTjueFPX3H1zQeqZ93jhw+7Vx4/y7xW9oWEtFd82M5Pt+6zp4+7p2F5XzztHj9+6j9/wacSAtUyy3iyXQrrOaebpyzvi6XL/KJ7use6xkrdHj58ZVz3Jb544bfLK34acUh2032F0IzHsTU0mz1+FV8Lx6Cw/5NjWvz3Qh/f725u7neP9XD5ju64ftYlNCMiLpPQXLB1wqNy0L7p7j/2JxP37j2cHuwf+5OO6Xsed/dzB+rHD12gTecx9fH9m+7eQxnPh9SW93j9st7oZWzWh+5yKJ57/fzNh+Y+BIU6vIjCZO/TVx52rzyNhj1+pRDGJPClATuZj2uNTl+vG0JcPeDnjZbrxdPuFR34XMup/hxKwM/Ma6YlPSjr+opr5ZUfJZa0rvtl3T+U+h8olm3nF92LZ0/djifUPX2/TDdXe8TD2BqaLR+/Ht+/191348XD9TFG/51T5lP6sfe+W2c9/OH9e93NjSybntb5S2hGRFwmoblg64Rjnz281924Ews5OGdOOvoD/+OH4QShcNLRn8CE8UvKScdwMK/8Up66b2j2JzLlE5SWE5jzthSaJTTGrR06rOmW5rSV+UUfqJ92r0ig6sP1Yxe2+8+kCqu+m7aeToPZgDtvaAH3ITYTmvvlfPY0BNxCaO5D7bBeBSfbTLZvdlo5DxOa3fq+Iq3d6Y8gUqeWFn9dd6esS3a6/TRntgvinO2h2fDxS0L8jT6e6GOM/junLK8apw/403V92N1v3secr4RmRMRlEpoLtk5YDtZp961w0iEtif0BOT7pGE4WSicd/QmMPnFRTk46isEkZx+aC/NukdBcCM1a6ZpbamkutjKn4Xs01wU8hM9SV+6CCwNoGvBDaJZW1b4LdByah6BY/mz6QFoPtdPAKa3krevZh+bCvJuUHyhKNRLDNiy93juuw9hVvPhjh5vn/DQR55wPzedx/JLl8P+GVmDpGi4t0OnfvnU4t1y50Hy//6EgGiYh/X5Y9tz2uQwJzYiIyyyF5pubm2SYfr02Tul1PUz/vdTWbCuh+c033zxGaO67jw0B51l/APcH3aEL2sKTDne9WD/+eKKguo7Jr/nDtWcPu/uy0WdOVLwy3xt33dquwdZ3mUuXKT6B2XXa52BzaFZmWxwz1+oO400+h31glvFj3TW/PpA/dK2eT5sClwusC1o0pzcekx8D5FplH3iHLtQLQ7O73rkf/0XS4hr90DBcO+1bYeeCtrfvVv34aTn0Vg1d0Qvbpxqo5YcE/WOJbK++W727Hjz3o4i/hju7rRAXOh+az+34NS7nri3Nk+NWH+4nyybXb/fD7ocfl6vTPU8JzYiIy9ShOYTdWpiNX8uNV3o9/D83bFdbs+1RQ/Ok+9izx93jZ2P3tuEEY+lJR4Pya/5cF7i8fWh+KF3T9Gstzp2g+Ju0XOKJRnASmqPWZLk7tr/R0zQ0ZVuanY+7VyQETgLUGDJdGA0hK2phnYRmZz9cpplZ3tQ+ED7NXJdcMg6Jcr32i7F79hCQl4bmBiXctwb7qX1olrC6w2cx/Ejg5q/vcO22ReYHkKzp9ekSJMbtIXdV9zc7y7foI+5mS2g+v+OXqI9B+u+cmeUttjTr67cvT0IzIuIydWgOlsJsbvhcCNZhWf+7j63Z9rihue/uLCcSz+REOrom7NgnHckBv8XhJOlxd3/x+2s3U5kqv9Ind1y9EEstzbsHvOk0QoieXs/7NGpx7W/kNQlYCwJX6ALc32E631qqHcPfC7nBVXRN87FDc76r+oxDyJfWs2Xvd6330TYZWtLdDxPyQ0eha3XOPmCP16TLDw7xOEtqgNhuU2i2ePyS+ziEY0nobj35vumQrP/OmVleQjMiIjZKaC7YOmGttGw92/mkIzpReHi/u5FwGn79V93H5I6eD+XfXQ7uw01X5ERj6UmPXmbRt5rqcafXrF2W7aE5tCKmrc7+Dta6lbd/lFTfGu27JoeALKE56kbZv1dal11YHoJwurzaOIimyzzvs6cy711Dc3Sd99P+Zlih9VptH3fNt/y7MPQ6h2u2JZS2bRdx2J6512RbheXNvJ4zdIN/7IJAVG93Qzff3d6HZtku6fsRd7UtNI+aPH7lgm0SkvXfOfXy9tMudM9u3V+cq4RmRMRl3lVo1sN2tTXbnig0y0m6nFiMN1IZDuRNJx2R/cF8euBWJwa5R4M0GP/CL/9fFmxzy+y7e+uudtXQ7Fq7W65hs+mi0FxqRZyE4Hh4fLOoqKW5EJrH659bu1qrRx1Vr83N+ax76tZxvBHYsI5NoTnS3UFaL7PaZs3rNVX/MNDcMpzVL1PSTXtWv+5yzaZvoY9ufDas+7i+uoUbcR+XhWajx68QmuPW58qNwNzjozLHo+z8co/HciE/s1/W0zrj45dIaEZEXOYpQ3P8/0MF59Zse5rQ/Pj+eDKROekIQfVgJx219xcdu+K5v3MnElUz88w+EqQeml1wdx+C9H3n4NLQLNcjZ1uaZ07OktD8ynhDrBAkh0DYGC7jrsbxsObWXHfdo/w/H5rTruV7huba+4uq64gbt01Of5fz+GZkWt9dOxt2+x8RJtuib/Ueh8Xrm7s7OuJuLgrNVo9fh2ppnhzr4gCe8f696qVF5378EgnNiIjLPHVojv/W/+5ia7Y9QWiOujoPB+fopOAoJx0qALfoAu60S92yaWSWObus9dAcfqkfH+1xXraFZn+TrsUtzZFxsCq1NC8KzdmQ2k+v6cZWUVfnYX5RqD1KaFYBuMWkq/oO03Bd66U7dvojw9TS+o3bavLjhzhZvun67nwNN6KyPTQbPn5lQ7N+lrSedsbCdB4n88/3nJp45scvkdCMiLhMQnPB1gn7E2bfHWw4SXDXUj4rtuIe7qRj5mYqGWXeycmAzKu0HInpMpeWoRqaz9zZ0PxCujDLdtYBMLIUmqV79rNwzXN4hFQfmvdqaZagXViWENZKLabu+cj9nb7DPNw6jsul53u40Lw8SOZa08drnNPxp/brKne4dl2mde8BbWH9hhb5NDRPu4ur9V3cXR4x73xoPoPjVybspnfeTqetLV2K9Oxhf+31MJ2bZH6XKKEZEXGZS0Ozfi03Xu313Gt6nCW2ZtsjhmZv7uAfDuy6BU9OUvzfjScdz6TrrAwfTwxcd1p3oj6dxvRRNpVpKuVESC9/Xr3M5dYCWc/iSUy47qzSBc6y1dDsbtwVguDS7tk+2MpwuRlV0j1755bmNIjm9J+r+HnMU3PhNYRKuTlYfFdo97zh0OU4FyrFODS/eNo9des6LuuLZ0/djw+T1myZp9ysS08rN01lvRu6Xwc3PxXYl4fmcN23/3samtUNwTK1qS8nYpvzodlr+viVhGbdyjyddrIsvdLluvR6eFa1Ow4m08545scvkdCMiLhMHZolwGr1vjYeTw+fe10P038vtTXb3kFojrq7uYN87oDdcNLRPxZKQlZoEXAH6vgkJgq8/u6nmekVrjueLoufTvb9BSfrLWHFXQsmj6Sqn/C7ZXYfksL6G7cUmkPonHYtLoTVUkuzmt5caJZrbl3YLIbmyjIk+m7MwzW86j1paI66axdbsnOhsjcE3P6xUPK9Cy3a4YeDMG4cJP3duzPTm22l9SFAppN9f8bdQvPUuI7+cV3x62l95ueJOO/uodnG8Uu+N/cfyo+M8q+8T44xue/aXGiW5SgcG8Pr0sLcEpgv4PglEpoREZepQ/O52Zptjx6adUutdPmKW1/dSUlyQJ476bjX3ZMTF9d92t8ZNH9AD9dg+e6nyety4lI9oRjn6bvpzYde0bVE5B5Z5ebnTyqKv8QP14RllvcMLIXmcOOncVgaiAYPFJon09PD3HW5+nnOc4bg7FvI4+npFlC527Pudpy28lZCpQvN/jFO7oQ4M8/pdPzjuHzXd/W6BO/Stlbz9N3M5VFg89/z+QBbWb/esY65Z2lXPiOIe9gamu0dv6TV19+MazKeTPO+f0SUvhnfQxke/e3HGZcn1xtKdMH+nhyL7vt/ZZkzj1CceObHL5HQjIi4TEJzwdYJe/tuXf0B1J9wqINudAMu9+u5PB7jfu5ExBvuzhkO9LPPbx0Cr/6l/v6ym5WE6fQ3OYkD0TjN8fEe5elKkJiuwyVZDM2JOhDJ9cpP/R1aJZjqz4kyF5rl/ZNnPMu1xe6uryqw9tcc5wPovLlwF4dmH5jV9yS6wZVbT+marpcrnsfwDOPSPJVD4J1O74UMX/I4qDCdQot6rO9yX7pzdn99efW7oOoYdHWTHwxemWkdR9zNttBs8/j1TPYLerx+/q5HkwToTNc4p1ou3YLtptP/mDw9zkXXeLvp+J5T9WPdeUpoRkRcJqG5YOuEp6bXf8VOTxx8d7Lk5CR+fUnYFd1JQPjlf+yGmow3Z3QDo3iYBIz7bv3ap5kNCxfgotCca+l1raLzJ2JD12v5W0Jo3+KZtn72106fZFun1y/HToNvWK7S90m2z4KwK062XX8dcnH6FV88K65DrP8M16b/ontWfV3VMfPaXI8DxF1sC81BS8evAzq5IZ+0SEsIbjiOuWOeD8zJaxcgoRkRcZmE5oKtE8brtD00IyLejctCM16ThGZExGUSmgu2ThivU0IzIlqX0Iwl5eQPERGXqfel52RrtiU040GVE9Gf/vSn7qQUEdGiso8iNCMiImJrtiU040H97LPP3MnoJ598gohoUtlHyb5K778QERHxumzNtoRmREREREREvDpbs+1Xv/pVF5rffvttQjMiIiIiIiJeh63ZltCMiIiIiIiIV2drtiU0IyIiIiIi4tXZmm0JzYiIiIiIiHh1tmZbQjMiIiIiIiJena3ZltCMiIiIiIiIV2drtiU0IyIiIiIi4tXZmm13Cs2IiIiIiIiI567OuzkXh2ZERERERETEa5HQjIiIiIiIiFiQ0IyIiIiIiIhYkNCMiIiIiIiIWJDQjIiIiIiIiFiQ0IyIiIiIiIhYkNCMiIiIiIiIWPAkofnm5mbyf60eP35P6fXcuKW/S7aOh4iIiIiIiNfpnYTm0mu54aXXc+PODQvD59TvQURERERExOtUQvP3v//904Zm7dLx9eu18Urjl5x7HREREREREa/Ho4bmUnCdMw7C8b85a6/l1MuUU78HERERERERr9OjhuZgHH7jYKr/jofl3q/V4+rwq1+vTav1dURERERERLweTx6al/wbv3/XEKzV08qp34OIiIiIiIjX6eLQ/OLFi6p6fFGH0hBM9d/x+LW/S6/pebRMW1t6Xa8nIiIiIiIinrc69+XcKTTrYSVLwTW8poeVXtN/t76WUwfqnPo9iIiIiIiIeFm2ZtujhuZgCKI6nJaCau5vbW5cPY4eN+fc64iIiIiIiHh5tmbbk4bm+O9aoNXD9d+l13Lj6WHh79L79PiIiIiIiIh4ebZm25OHZh1acyFVD9N/l16T/+fMja+Hz72GiIiIiIiIl2Nrtj16aI6Dqw64uf+3/F16LTde7fWwbLG58RAREREREfGybM22Rw/NiIiIiIiIiNZszbaEZkRERERERLw6W7MtoRkRERERERGvztZsS2hGRERERETEq7M12xKaERERERER8epszbaEZkRERERERLw6W7MtoRkRERERERGvztZs+2u/9muEZkRERERERLwuW7MtoRkRERERERGvztZsS2hGRERERETEq7M12x4tNH/22Wfdxx9/jIiIiIiIiHgS33333e79999P8mnO1mx7tND8ySefdAAAAAAAAACnRIKzzqc5W7Pt0UKzpHwAAAAAAACAU0JoBgAAAAAAAChAaAYAAAAAAAAoQGgGgMXcbtbd5narB3u2m269vu0KrwIAAAAAnBWEZgBIuF2vu1s9cGDbbVY33XqTj8Xbzaq7Wa27UqYOuOAdxnFBe9Pd3t6ObtbdSodvGa9h2iVC2N9ut4R6AAAAAGiC0Axw0Wy7bRxEW1yvupubm+5mtSkEy9tufbMaA++EPlCXE3dENO520630/G59aJ4i884E+ttNt25I0rfrm27lFvy2W69WTe8BAAAAgOvmMkLzVk6Ab/yJvjvZL3Ud3Y6B4OYmbcUKNE3Pn/AP40T6k/JdaFw+t4jrbjXMf1Vs9VuErHcSUnpu18l6jtunFK4aqc03oRbYFlKd7zHqG1Naj2PPtxBqJbTmwmgO+SyUaq7Cr7To1nCt0m5h5DuXCc39Ot9uQsAthOZ+vea2kYTmYd3dZzo3LQAAAACAkfMPze4kPe6uuXUn2BIk9fmznDCPJ/t9ONHpoXl6PnC5bp7KXWlavhA04mV0J/96+drZSjfYENQy8xN8uNkk6yrvPeZ8NW4b7bGuQtt8D1/fmPJ6HHe+u4fmscV6Iz/sDF2pZVuOn0X50WeyTn1r8XTpZX0mA6LQLPPpu07HoXkIu6XQHL4XhTDfMwnN7rutlw0AAAAAYMrZh+axu2U6fBKIcsHSBYXpsObpdbfdJjPezjQuX35YH7SiQcvwocy1cidpynO7yYURCVD58duYn+8E18K5Std/MS3zPXB9Y6rrccT5OnYNzSOT4Bm3LMv/kwlHP/JEw2Tbj12jt92tdK/upzN8BxeGZne9cz9+qUu6a40eAv+mWx+ipwQAAAAAXDQXEZpzJ71jt09PGnqFtEtn6/QOHW5aly9djsOxdNr7tDLHNM13+LGg1K15OfX5Hra+A7PrcaT5DuwbmlVolR8AZGLukgb5PExbx0M4XelW/fjHn+1td+veP4ZmN+rS0NyA1Dz3oxgAAAAAQImzD83uhDu53jhqrXKk4TOQhOSm6fmTfmnVkq7bLhC4Fqtd7+rbunzl8Q5BPURqatcDL2N+vrLe0jIp/y+FzR4JWo3X/1bnu7S+TfNtWI+jzDemPTRL4E2mqlqThxDq3u+7nIe7YPvgPI433dbjcmw3m+42uqb52KG5WHMAAAAAgAznH5pzJAFATrTzwaLlOsh0en24Wa0nd99109LjNdG6fON47kZgw02iDnMX4CWB4lCtzMLcfKetg4WwGVgQIqvzXVrfhvk2rcdB55u7c7ZMX8ZXw+U6b1me+LrlvnU4nrIsy7jJpgG8ft11+RFPvuv/rqE5tGb7dXA37ZO3uB+/puvnLn+Qf0s1BwAAAADIcIGhedtt5BmzkzN0HzZz58rzoTk3PX9SnnajVS3BtTtOuxbEaRieX75+vPX05krbvvvr8P7m+U6phsgJmTsd70F1vsl1soWwuQP1+TbUdwmt63Ho+Sa0tzTnmN7oSwfYXQjrO94ITFrj/aCW0ByRvat3ND33Z+bRVgAAAAAAFY4Vmt966627CM0ScHMnxK0tuZrS9MpUg1iR1uXz4+WmX1+PNlqXfdpiuj/l+UoXcL1OhbC5A+X5ltnlPYdYj93mm6Mw36bQrH4s0SHV3Sk73GQrUlqtS5/NW2lVd//JhuawzgcLzbX3AwAAAABkuKDQLF1K9QlzoNxSl1zTPL5SmV6Z3cJN6/KVW6TzgWEZbcuuQ8j+FOc712KeC38LKM63wi7vOcR67DTfHKVwXBoe0z+/XB4xJc8t3+jr/KOQO6E03H2W+nkOLcBRqD1KaC60tAMAAAAAFLiQ0JxryZvSendqz/z0/LN+03Hy85kn/z69fPrviGxgWEZTMIvvenwgmuY7UGgp3YHafA9d35T8ehx9vqUA2xKae9z19O4512r5S9NOhsuNzvpr8sO6hm7phe7ThwvN9boDAAAAAGguIDSXAu6222yiE2PX2qdO8rMBsGV6PrymJ957tGI1Lp874c+EhkMEgaZp5JZzT5rmO5APm7tQnu8R6puQW4/jz9c/H1kPDZ+19HNVxAVU+SxGN6FLwnFPYXhu+8sw+VFIbg4W30dAQrb/uzE0bzed/7qOoVmu/Zfv8KQ1W8bI3SUcAAAAAKDnzEOz796pnw3rng+bue429/gm3QLWPL3+BH08sd/Wr91sYH753Fj+uuZoPv5GYDqALUWWv9RVfcSH9n3nFdM234H+h4RkswSqd5OOmZnv0vo2z7entB7HnK+75ljPsGdRaPbPZJZxpdV5+BGnEI5Lw9PQ7L9/fojMI/c5awjN0o1cbpTnvrf99nF/x6OO3y1/924AAAAAgDxnHpr7AFkwDRJ9AAmvq8fpLJ2ehFW5xnOc3r4n33PLF5DrScfxqs/xbcAHYbW+lZB2qNC8aL7Z2mTCU0OIbJ3vovo2zNczvx5HmW+h2/NAc2hOuzvfyt3l/X984Nc3AkvCcXjf9Ech6Zoej+bqlCzzXGheuWuub/vP6dq1LOfwdZBHb016pAAAAAAAKM48NAPALPLs5+IPMD2NoVkCcjGfF1qU88P7lv5+uA/MasLRMvkfElbdutLqHn4MCbOqPjZaCM86L0wPAAAAAEAgNANcMBI2b2fToxtxJlin1xknSLDNjbC9rbyvPt3povtW7uw8HMsfEefvCD7/YwEAAAAAXC+EZgAAAAAAAIAChGYAAAAAAACAAoRmAAAAAAAAgAKEZgAAAAAAAIAChGYAWMitu+FW8X5cpbthAwAAAACcIYRmAEiRx1SVni3V8HgqeZzUXGi+3USPr3KPxVLPeN6s02eVy3h7PJfczfN2222322V32QYAAACAq4XQDHDpbLfTMDqrBNObyTOPJ6jnLqdPtLrt1jer6HnOElKnY3jkEVL9PCSI6+cly3OUkwWQaWcCe+lxVwoJ8yu3YPKoqdrjqwAAAAAAPJcRmt2zVv1JvnPlW5NStt3tejWMl7RiBZqm50/4h3Ei/Un5LjQun1vEdbca5r8qtwouoX9WbxYJSpl19dtn4bNxNbX5JuhAtgfV+R66vjtMr7p8h2G7WZXnP2HbbftQvVmvulVoFXafV2n5jYK5tBC770wYX9Yz3zos8/cBXL5zmdDcL9vtJgTcQmjut+/cuvgW8OEPv1xqHAAAAACAmPMPza6FKj4h37oTbAmS+vxZTpjHgNeHGB1KmqfnA43r5qnclablC0EjXkZ38q+Xrx25/nQI4Jn5CT7cbJJ1lfcec74at432WFehbb6Hrm/79NqW7zC0h+aAfC5ntr9qiU7JtTyH0CzhvO86HYfmIeyWQnP4XtR/wJmEZvfdLv8wBQAAAAAgHCM0v/HGG6cLzWN3y3T45MQ9FyzdtZnTYc3Tk5shZcbbmcblyw/rA1k0aBk+vLlWw0LYud3kwoi0IubHb2N+vhNkG61W6fovpmW+B67voum1LN9hWByaQzdqWb7C21qmKes2do2WVmrpEu4/Y8N3cGFojq/DDq3iWtcaPVw7venWh+gpAQAAAAAXzUWE5txJ79jt05OGXiHt0tk6vWUhaJ7W5UuX43AsnfY+rcwxTfMdfiw4XPfs+nwPW99dpldfvh1wPzpMa9YScCeEIBtuBpa8tdASLa3qk7+jH3+2t92tuyRiDM1utZeG5gYWry8AAAAAXD1nH5rdCXd65q5ajNPwGUhCctP0/Em/tGpJ1+3VcG1vLkS00Lp85fEOwbKQdrjrbefn64PYGJoyoSwgQat2nXBEdb5L6zs336XTm1u+wNx8Y1xonv4glA+Rue7TQuHGXa6b+XgTMReGJy28fhllXcbJjtPabjbdbXRN87FD8+w2BQAAAACIOP/QnCN5JI6caOeDhTuJzrQsT0im14eg1fRZtG5aerwmWpdvHM/dCGy4mdRh7gK8JFAcqpVZmJvvNNidMDQvqe/cfJdOb275AnPzjSmFZvWoJ3/Dssw27i8hWE9u9uXnP6zX7PXMKb7r/66heXoDsqElfQjx0WuyTvLvwuUDAAAAgOvmAkPzttusdQueD5u5c+X50Jybnj8pT7vbqpbg2h2nJ9dSti5fP956+vzarWvd03cFzswvme+UppDmyNzpeA+q85UfLCavzYTmBdTn21DfJewwvery7UIpNBfmn+Jv0uX/m3lE1CTcthK2y3gjsKF7d1NojsisX9JdvLDcAAAAAAAlLiw0S8DNnRC3tuRqStMrs1vQaV0+P15u+vX1aKN12ZcFrXnK85Uu4HqdThSaC+zynhq16dVe24lMqNy5lrnw2V+nvN6ortm1bui30vru/pMNzWH9Dxaaa+8HAAAAAMhwQaFZ7uSsT5gD5Ra95Jrm8ZXK9MrsFnRal6/cIp0PDMtoW3YdQvanON+5FvM9w3NxvhV2eU+N2vRqr+1E5jOyd2iW65lvN92mf3STBOXpaP7xaPlZyGepD7BDCI9C7VFCc3RdNgAAAABAAxcSmnMtklNc+EzOlEthdX56/lm66Tj5+cyTf59ePv13RDYwLKMppOUeebUnTfMdOE1L86Hru8v0asu3E5nPyNLQ7B41tZHrs/2zy+Va5vK7pfU4F3BlGv01+WF5Qvf1XAv2QUPzEbYrAAAAAFw0FxCaSwF361q/BlyrpQpb2QDYMj0fXtMT7z1asRqXz53wZ0LDIYJA0zRyy7knTfMdOEVoPnR9d5teefl2JBMq20Nzf2lA3/16Wwi3MTLt2uLn1i8sjwTzuEu3hGz/d2No3m46/3UdQ/PYIj6dhjzTubYeAAAAAHDdnHlo9t07N+6RN1Pdo31UGJh2dc4FmQXT60/QxxP7bXe73u+64vnlc2P58BLNx98IbN8gKctf6qo+4kP7vvOKaZvvQLhuVm+WQPPdpGfmu7S+c/NdOr255QvMzTdmUWiWu1Kr4fGzlguhWe7qLj863faP2KqRhmb//fNDpJU69zlrCM3yzGe5UZ773vbbx/0djzp+t/zduwEAAAAA8px5aA6tX3nTMNAHlfD65LmxwrLpSVhdu8fzhOnte/I9t3wBuUHZON7c837n8EFYrW8mEDkO2NK8aL7Z2mTCU0OIbJ3vovq2zLdxeq3L55iZ7/j8ZHnsUn99cfx4qXX6yCkxLGfxUWaF0OyQ0CrvL17L7NFd06ULe5yh3XZI5jEXmlf+xmP959S1iuvxHP7ztNpIt/Ds1AAAAAAAHGcemgHgTqiFZkffUl78gaV/vU/JPjCrEV2vAh+Q/Q8Oq25daZ0PPzaE4B23LGcJzzovTA8AAAAAQCA0A8BypPt1sSdEQIJxvbXZjaOuX46ZBl9/fXISrgeWPyLOt4oXWq4BAAAAAAjNAAAAAAAAAGUIzQAAAAAAAAAFCM0AAAAAAAAABQjNAAAAAAAAAAUIzQCwEHlUVfnmXUL2bthnxlYev1VchfltUEVupLbno+IAAAAA4DQcKzS/+eabhGaAs0VCXem219GjoErI46TmQvPtJrqztrsbt3pe9GadPqt8z7Dp5nm77bbb7cxdtuVO3bVnpctznkuP02pgZhvK8gEAAACADQjNAJfOdjsNo7NKMJVnLI/PPJ5wux6eryyk+U4HSgmp0zE8Ppi6SeWe+yzPUU4WQKadCZuyzA1JWsL8yi2YPGqq8viqmVBbXI6I7VZv10j5QUC2kR7uXvPPm/bLCQAAAAB3zWWEZvesVX+S71z51qQUeW6sPyF1J6WlVqSm6fkT/mGcyN1PdhuXzy3iulsN81+VWwWXIOudhJQeCUqZdfXbZ+GzcTW1+SboQLYHDfM9+XYWmj5/h2G7WTV+Xre+u/KtdEtedavQKuw+r9LyGwVzCYRumcP4sh751mGZvw/gss6Z0NwvmwRJH3BLYbVvGZ5ZF98CPvzhl0uNI8hy1UpUXo5GZkM5AAAAAFjh/EOza6GKT8i3fUtNGqzkhHkMeH3o1WfGzdPzwcd181TuStPyhaARL6M7+dfL145cfzoEw8z8BB9uNsm6ynuPOV+N20Z7rKvQOt+72M7tn7/D0B6aA/K5nFkW1RKdkmt5DqFZwnnfdToOzUPYLYdVX6/6DziT0Oy2be6Hqa27XnkYfivXLuvWegm9cUuxtBzPd0kfIDQDAAAAnA1nH5rH7pbp8MmJey7wuBPX6bDm6cmNgDLj7Uzj8uWH9QE+GrQMH4Bdq2Eh7NxucmFEWhHz47cxP98Jso1Wq3T9F9Mw37vazs2fv8OwODSHbtSyHoW3tUxTtsEYMCWQSpdw/xkbtsHC0Oyud+7HD63iWn+dcrh2etOtcz0lbuUmZsNEC9c2V5ZD47qZZ67XTrpn++WZ23YAAAAAcFouIjQnJ739iXscMvKhI+3S2Tq9Q4fm1uVLl+NwLJ32Pq3MMU3zHULs4bpn1+Zbe21fatNu//ztgPvRYVqzloA7IQTZ0FKavLXQEq1vvBX/KCHX/rou6WNodqu6NDQ3MLu+uuu822ZpPRYtR24a2ZbmwrYDAAAAgDvl7EOzO+FOz9xVi10aPgNJSGmanj/plVYt6Tor3TLDtaeZtzbQunzl8Q7BsmA2c13uAubn68PEGJoqwaLvJtuyjcrz3WE7H2S+Cz5/4wvN882Ft3yIzHWfFgo37nJd9cfW0rQF1S+jrPM42XFa282mu42uaT52aC5u+/C6bM/Vulu71uDSvPRyVO7GndnuhGYAAACA8+H8Q3OO5IRUTnDzwcKdJOsTWk0yPT9MHn0TX8PoT7j1iXALrcs3juduUDXcjKtyF+AFzAWKmEO1Mgtz850Gu1OE5h2280HmWyD3+QssmG8uvLltq7oO+xvcZbZxfwnBOnQvdjf7Utfyzl7PnOK7/u8amqc3IBta0vWdq+U1WSf5t7p8Y/i9XavP+GSa8Y8D/d3GS9PNbPd8TQnNAAAAABa5wNAsN/HRLb4+BOXOaedDc256/gQ67Z6tWihdyIjugqxVYXh++frx1tPn127dCby+K3Bmfsl8p7SHucydjvegOl8JF5PXZkLzAsrzbdzOO1Keb47C528XMuFt+oPEHP4mXf6/mUdETcJtK+F7NN4IbAiOTaE5IrN+SRAtLHfC5LrmPQnd4lWIT1vkffg+2HwBAAAA4CBcWGhWd70daG3J1ZSmV2ZZIAq0Lp8fLzf9+nq00brsy4LWPOX5ShdwvU6nC8251065nXf5/FXJhMqda5kLn/11yutNHAR9i3Qx9A/hNB+aw3Y6WGiuvT8Q3VDMdT3v18W3hqvw2+sew1Xajmq5XP3dD1jrbuO6pgek3of5bAMAAADA4big0CwnrvqEOVC+RjW5pnl8pTK9Mu2BKKZ1+cot0vrEfBfall2HkP0pzneuxXzP8Fycr4ntvNvnr0pm2fcOzS5UbrpN/+gmCZDT0fxju/KzkM9SH2CHEB6F2qOE5ui67Bwu+Ms1zf3zsSePpCrPu9bCLtd7D9eIh+lLLwY3rcPdGwAAAAAAjsOFhOZci+QUFz6Tk9NSWJ2fnn/mbjpOfj7z5N+nl0//HZENDMtoCnN9a2JuEXalab4Dp2hpvuvtPP/524nMsi8Nze5RUxvpRuyfHS3XMpff7Vtm0zWVafTXioflCZc75FqwDxqa57a/b93Pt4yX510LzSP+c+XmHV3TLPuS4rXyAAAAAHDnXEBoLgWMrWslGnCtlipsZQNgy/Sik189Tq0Vq0bj8vmunemJez0ItNE0jdxy7knTfAdOEZrvcju3fP52JBMq20Nz32W97369LYTbGJl2cTUL2yEsjwTzOEdKyPZ/l4PrZP22m85vrjE0jy3i02lI9+vaekgzsV+e8rxbQvOk18jkRmB+GdvqAAAAAACn5sxDs+/euXGPvJnqHgWlTkKnXZ1zwXfB9PoT9PHEftvdrve73nV++dxYPrxE8/E3qNo3SMryl7qqj/gwue+8YtrmOxCum9WbJdB8N+m5+S7czgeZ74LPX6B5vktDs9yVWg2Pn7VcCM1yt3EJ/bfxdcEF0tDs198PkVbq3LYuB9dh/fpnLfvt1m8f93c86vjd8nfvniLTkDttu0dPDduhPO96aPb7hsn2moRmQdbXdwnXmx0AAAAA7pYzD82h9StvGgb6YBtenzw3Vlg2PQlR7kR3mF568r2MueUL+BsGDcu254m2D8JqfTOByHHAluZF883WJhNgGkJk+3wXbOeDzDe3jqPZac/Md3x+styxub++WN/ASj1ySgyf62K34UJodkhoDdcEZ0fw6EsSfDfl8XW3vZJ5lIOrD80STtfuBmRDq7gez+G39Woj4TiKrkO9c48X63s55G4EVuxhUmhFTkKzG9g/7ku2nV92AAAAALh7zjw0A8CdUAvNjr5FvfgDS/96nzSz1/XG1/26H6hW3brSmyP8KBHCa9yynCU8gzuenrSUV4O2Drr9K7mWZtfiXfihJRuaw0uyDLk3AQAAAMBdQGgGgOVI9+tiT4iABON6a7MbR12/HDMNvr7VNgnXAzs8osu1iufDa0r5jubpOki3+vhvRdP2AwAAAAALEJoBAAAAAAAAChCaAQAAAAAAAAoQmgEAAAAAAAAKEJoBAAAAAAAAChCaAWAh/oZYxftxhTtA10a4MuR50ZvS9uCmYAAAAACmITQDgGfr72Qtj3ZKniscU3lcUsA/gqkyjRAkwyguOKrnRW/W6bPKZbza87JnCOF1u90eNKTKXcLL28M/f7n0GCn/POrd1wkAAAAAjguhGeAq2Ha3ISxKOHahdNNtpEXYPf947d2MobX4yKTb9fB8ZSEdT55nHD+fufT4pT5MugcxZ577LM9RTh5+XHhWsjzHuSF1Spj3PwjIo6Zyj6/adts4uLcoz47Wz3ueoLdHTLQNAAAAAMAklxGa3bNWb/yJqzt5LXWFlOfG9ie4NzdpK1agaXr+ZHcYJ7LaSlelcfncIq671TD/VbEVaxGy3qWzdwlKmXX126cUFhqpzTehFkAW0jDfk2/nhEOtbx828+m1gTFMbtarbhVahd3n1U93CJHSQuy+M2F82Xb5llTXyuq2hXznMqG5X/HbTQi4hdDcfx/nvnu+BXz4wy+XGmdKIdQ2tLYPyHz0ugXUjwXygwYAAAAA2OL8Q7M76YxPyKWLqZzIp0FDTpjHk9c+9Oqz4ebp+eATWu5id6Vp+ULQiJfRnfzr5WtHrj8dgmFmfoIPN5tkXeW9x5yvxm2jPdZVaJ3vXWxnzSHW11MKm0uRz+XM8qiW6JRcy3MIzRLO+67TcWgewm55PXy9CuG0ZxKa3Xe7/MOUZ9fQPP2RQb47/kcF/4NC+EzJjw6Tbdm3rteXCQAAAABOydmH5rG7ZTp8cuKeCzzuxHc6rHl6cjOkzHg707h8+WF9gI8GLaPvsutO7vMxQLryptOXQJAfv435+U5wLXardP0X0zDfO9rOEw62vkI5bC4itIzKehSWScJr7jsUI9tg7BotrdRyrbL/jA3fwYWh2V3v3I9f6mLtWqOHALvp1rM9JXYNzSOToB63LMv/kwlHP9boFwAAAADgTriI0Jw76R27fXrS0CukXTpbp3fo0Ny6fOlyHI6l096nlTmmab5DiD1Ud+X6fGuv7UvTtA++vv10MkFS67pTl34cCEE2hMZkpEJLtL7xVvyjxPa2u3WXRIyh2W2epaG5gZZAP2Xf0KyWN7TCu/WV78+050YI86sFvREAAAAA4LicfWh2J9zpmbtqMU7DZyAJyU3T8yfN0qolXbfdCa5rscqFiBZal6883iFoCnMDS67LrTM/Xx/ExtCUCWUBCVqN15WX57vDdj7IfAPHWN84vMkPPqX59+ueDc1RgJy0mErgC6G7D8OTIO6XcRrEx2ltN5vuNrqm+dihub7tNe2hWdY12WaqNXkI7e79/XXyfcu3D87jeMuWEwAAAACOxfmH5hzJCa2caOeDhTs5zbQsT0im54dJS1F89103LT1eE63LN47nblA13Iwrdxfg5Sw5UT9UK7MwN99p6+ChQmRtvjts54PM13Oc9Z2GzWL9ajfH6i8hWEsQHm725ec/bJfZ65lTfNf/XUPz9AZk7qZ98pYhxEevyXaUf4vLl7tztnzPZfum04t/HHDXLSc/DPhajrObBvD6/Q8O+0gsAAAAANidCwzN224jz0ydnHH6EJQ7V54Pzbnp+ZPytHu2aqGs3XHatUxPw/D88vXjrac3C9r23TmH9zfPd8pcmBvJ3Ol4D6rzTa77nAmRCyjPt3E770h5vsdcXxU2k/m4gTMt7P4mXf6/mUdETcJtK+F7NN4IbOje3RSaI7J3qVbdxQvLXaa9pTnH9EZflWUHAAAAALNcWGiWgJs7IW5tydWUplemGoiKtC6fHy83/fp6tNG67NOW0P0pz1e6gOt1OlSInJnvnWznI65vJizKcsSLsWjdMtPzQVIey6W6ZtcuW7iV3hruP9nQHLbTwUJz7f1ZCtu/KTSrH5f08sm2GW5KFimt1sl6AAAAAMBdcUGhWbpIlk40yy1oyTXN4yuV6ZUpB6IarcvXt4DmJq9PyHegbdl1CNmf4nznWsxzYWYBxfne1XY+5vrmQq4Ldf00+8DbPP0wPbkO93bjrpGWt0rom47m7wSdn658lvrgOSxfFGqPEpoLLcclSuG4NDymf96778YuP8Cp73ipK3tpOAAAAADcCRcSmnMtdFNc+ExOREthdX56/pm76Tj5+cyTf59ePv13RDYwLKMY5mKWhqsGmuY7UGj524HyfA1s54HDrK/Ms7g+N/5mdtnXFe4Ozxu5ztc/u1yuZS6/y98hOl1TmUZ/rXjYluFyh2y4P2RoXrj9SwG2JTT3uOvi3fO5VR1L0y4NBwAAAIA74QJCcyngbqd3CO7DweSkNRsAW6bnQ1V6YruwFSumcfncCX/mZH1RECjQNI3ccu5J03wHDhMihdp873w7DxxmfafX1sb0n2VZ1+zrgb7Let/9elsItzGynrXVzG2HEO4lmMfLIyHb/90Ymrebzn9dx9A8tohPpyE3/yqth3+etB4avpuF5cjhlm38oWEYlpt4aTgAAAAA3AnHCM0y7olCs+/eqZ916lvD0pa13OObpienC6bXn6CPJ/bbva9FnF8+N5YPL9F8/A2qSqGoFVn+Ulf1ER8m951XTNt8B8J1s3qzBJrvJj0334Xb+WDzVRxkfQs3bpPWXfd4qU1/9+fK3cGF+FnLhdAsraruEUr9I9lqpKE56q7tljm3rRtCs3SLlhu4ue9tv33c3/Go43fL3707g7vmODunhaF5bHGX7TP8GFMKx6XhAAAAAHAnnHloDq1fedMg0Qfb8HryLNpl05MQJdcsjtMrnHw3M7d8Abk+chxv9+dDe3wQVuubCUSOA7Y0L5pvtjaZ0NIQItvnu2A7H3S+wiHXV19T3IfJ/lrbYWh4vJZ7RnSt23UfGkvL3l/LW76W2aMvSZDljLOi217JPOZC88rfeKz/nLpWcT2ew29feZRU9pnVtfUTmkNz2j38Vu7G7//jf3jTNwJLfkwAAAAAgLvkzEMzAFSZtPjmw/IEaX2Of7gp/VAwFypDi3rxB5b+9T4c+sCsRoyCqf+BatWtK705wo8SIW9WH4MsDD8SqOnJNiv+YNXTGJolIOfXvw/NuXBcGg4AAAAAdwKhGeBiGZ8lHt/hugnXxTkfTh0twdIF40podKTXL8dMg69vtU3C9cDyR8T5VvH4+mZZloYphC7gevhAfb0c8kNAboTtbf19AAAAAHBSCM0AAAAAAAAABQjNAAAAAAAAAAUIzQAAAAAAAAAFCM0AAAAAAAAABQjNALAQucN2/SZX2bthnxlbefxTcRXmt0EVuZFa6c7kAAAAAGAKQjMAeLb+js/yaKfac59bHrckj5OaC83y+KvxaVhyN271zGJ5PJa+Q/WeYdPNU55BvZ15DrW7U3ftWenynOfS47QamNmGsnwAAAAAYANCM8BVsO1uQ1iUcOxCqTyGat0//3jt3YyhtZjb1HOE0/F0oJR5Tsfw+GDqJpV77rM8Rzl5XrFMOxM2S49vUkiY9z8IyKOmKo+vmgm1xeWI2Mqjo+IfAfQPArKN9HD3mn/edPWHCwAAAAA4GZcRmt2zVm/ciaZz5VuTUuS5sf6E1J2UllqRmqbnT/iHcSJ3P9ltXD63iOtuNcx/1a13nmdE/+zZLBKUMuvqt8/CZ+NqavNN0IFsDxrme8jtLM8Ajj9Xp61vH/Ly6bWBre+ufCvdklfdKrQKu8+rn+4kELrvTBhf1iHfOryVgOhqIN+5TGju11uCpA+4pbDatwzPbCffAj784ZdLjSPIctU/GqXlaGQ2lAMAAACAFc4/NLsWqviEXLqYyol8GqzkhHkMeH3o1WfGzdPzgSu03MXuStPyhaARL6M7+dfL145cfzoEtMz8BB9uNsm6ynuPOV+N20Z7rKvQOt+Dbmd57yq6BnZ7e7L6evYMeQPyuZxZFtUSnZJreQ6hWcJ533U6Ds1D2C2vh99u9R9wJqHZfbdzP1xs3fXKw/BbqVv0o4BTQm/cUiwtx/Nd0gcIzQAAAABnw9mH5rG7ZTp8cuKeCx7uxHU6rHl6ciOgzHg707h8+WF9gI8GLaPvsiuthoWwI1150+lLK2J+/Dbm5zvBBc9Vuv6LaZjvgbdzNtBl55Ebtvt8R8phcxGhG7Vsv8ICybrmvkMxsu3HgCmBVFrh/fYZvoMLQ7O73rkfP7SKa/11yuHa6U23zvWUuJWbmA0TLVzbXFkOjetmnrleexK6x+WZ23YAAAAAcFouIjQnJ70hpESBKA29Qtqls3V6hw7NrcuXLsfhWDrtfVqZY5rmO4TJw3XPrs239tpOSMvyRk8vXZeDz3egn1cmSGpdd+okJPaEIBtaSpORCi3R+sZb8Y8Dcu2vuyRiDM1uEywNzQ3MBnrdZb/vIZC+Y8Fy5KaRbWkubDsAAAAAuFPOPjS7E+70zF21GKfhM5CE5Kbp+ZNeadWSrtvSLdNf25sLES20Ll95vEOwLLDNXw/cyvx8fZgYQ1MlWPTdZFu2UXm+O2znBfMdCK2244AjzjcOebkAHyi1rI6vuU0WL7vrqj+2lqYtqH4Zp0F8nNZ2s+luh+7Zxw/N+Zp73OuyPVdyUzRZ7tK89HJU7sZNaAYAAAA4a84/NOdITkjlBDcfLLLdZjXJ9PwwefRNfA2jP+HWJ8IttC7fOJ67UdRwM67KXYAXMBcoYg7VyizMzXfaOniK0LzDdl4wX4drWdXrccz5TkNesX6Vm2P512RZ4pt9qWt5Z69nTvFd/3cNzdMbkLmb9slb9J2r5TX53Mi/1eUbw+/tWm2jyTTjHwf6G7yVpktoBgAAADhrDh2a/9k/+2d3HZrlJj66xdeHkdw57Xxozk3Pn0Cn3bNVS6ELGePdkhNVGJ5fvn689fT5tXJXZh9c+gHN851SDpGazJ2O96A6XwkXk9dmQvMCyvNt3M674MJSH4QlHE9ePOJ8ddhMtqsbONPS7W/S5f+rW8k9Y7htJXyPxhuBDcGxKTRH5MKpDqKF5U6YXNe8J265xruJhxCftsj78H2w+QIAAADAQbiw0KzuejvQ2pKrKU2vTDmI1WhdPj9ebvr19WijddmnLb/7U56vdAHX63S60Jx77RDb2RFuRDaZ1hHnmwmLMs14VovmkZme/0FAfgxQXbNrly0M4TQfmsO2OFhorr0/EN1QzHU979fFt4ar8NvrHsNV+lCq5XLb2f1wsu42rmt6QPY3h/lsAwAAAMDhuKDQLCeu+oQ5UG5BS65pHl+pTK9MOYjVaF2+cou0PjHfhbZl1yFkf4rznWsx3zM8F+d75O08out+xPnmQq4LgeFmXJm7dtcI03OhcuOukZa3SoCcjuYfn5Wfrqx/H2CH5YtC7VFCc3Rddo6+J4B7JJks9+SRVOV511rY5Xrv4RFbYfrSm8BN63D3BgAAAACA43AhoTnXIjnFhc/k5FSHlsD89PyzftNx8vOZJ/8+vXz674hsYFhGOURGLA1XDTTNd+AULc1H2M6u9TKd17TuR5hvT7F3gPthwt/MLvu6wj1qaiPdiP2zy+Va5vK7fMtsutYyjf6a7bBO4XKHbLg/ZGiu1V3wvUvyLePleddC84ivr5u3+x75acm+pHjNOgAAAADcORcQmksBdzu9Q3AfDia5IBsAW6YXnfzqcWqtWDUal8937UxP3OtBoI2maeSWc0+a5jtwitB86O3cf16S6aWfo8POd0S6gue3WbRs2dcDfdfxvvv1thBuY2SZa4ucW6cQ7iWYx8sjIdv/XQ6uk9C83XT+6zqG5rFFfDoN6X5dWw/Xld4tT3neLaF50mskCs1hGVt+tAAAAACA03PmoVlONqXrpzzyZqp7FJQ6CZ12dU4Dy6Lp9Sfo44l97hrVZcwvnxvLh5doPv5GUaVQ1Iosf6mr+ogPdfvOK6ZtvgPhulm9WQLNd5Oem+/C7TwzX7fd9OclG5APO19P4cZt0rrrHi+1cdfSVu/SLcTPWi6EZrnrt/zodBtfF1wgDc3+++eH5O4u3g9PtllPCM39s5b997bfPu7veNTxu+Xv3j1FpiF32naPnhq2SXne9dDs9w2T7TUJzYKsr+8SXisBAAAAAJyeMw/NofUrbxok+mAbXk+eRbtsehJm3InuML305HsZc8sX8DcMGpZtzxNtH4TV+mYCkeOALc2L5putTSbANITI9vku2M4t8508Rsp/XvLTO/B8k8dL9WHS3dRqfGFYPvdM7Fq36z70ZbeZm9AQACuLlVyS4Lspj6+HHxqmkygHVx+aJZyu3Q3IhlZxPZ7Df55Wm+kzq8fvX+4HhL6XQ+5GYMUeJoVW5CQ0u4F9q39fg0x3fgAAAAA4PWcemgGgyqTFNx+WJ0gLa/zDTSmw10Kzo2/JL/7A0r/eJ83sdb3xdb/uB6pVt6705gg/hoTwGrcsZxl+JIimJy3l1aCtg27/Sq6l2bV4V7ZfYVpuW+Q3GgAAAADcAYRmgItlfJZ4fIfrJlzgy4dTh4TxYk+IgATjemuzD/KlFncdfH2rbRKuB5Y/Is63iufDa0r5jvrpOshlHfHfiqbtBwAAAAAWIDQDAAAAAAAAFCA0AwAAAAAAABQgNAMAAAAAAAAUIDQDAAAAAAAAFCA0A8CdspXHNhXviOVvvlV+fQa54VbpDuAAAAAAAA0QmgEuHHnM1PjUKblr82b6nGF5DJW+k/OeYdPNU571vJ153nP/bOJk/gP9s5HzL85TebSTIMsHAAAAAFCD0Axw8fhg6p4jnHu+sjyvOHnIcOGZxPK85IYkLc8tXrmkK490qjwmaibUFpcjYruNfgDQyg8CErr1cPeaf66zX04AAAAAgDyXEZrds1Zv3Amwc+VbuVLkubH+RNmdLJdat5qm54PIME7k7ifhjcvnFnHdrYb5r7r1zvOMcM/mLcST23WynuP2yT+7tpnafBP2bHmMaZjvIbezPCs5/lydsr5bCYhuXeWznQnN/fQlSPqAWwqrfcvwzPJIaB42rfvs5Kbll6tegtJyNDIbygEAAAAA6hwrNH//+98/UWh2LWdxN9Jt34KUBis5kR8DXh969Rl78/R84HLdT5W70rR8IQDFy+hCiV6+drbSGhcCWmZ+gg9dm2Rd5b3HnK/GbaM91lVone9Bt7O8dxVdm7u9PUF9pUZ6WAjN224r3afdoCg0D2G3HFb98tV/KJmEZvcdyv1AsHXXKw/Db2X7bFWLsITeuKVYWo5l2unUshCaAQAAAGBPzj40j91A0+GTQJILHu6EejqseXpyg6LMeDvTuHz5YX2AjwYtwwdg18qdCXHC7SYXkuQmTfnx25if7wQXPFfp+i+mYb4H3s7ZoJmdR27Y7vOVdRwDpgRSae32yzF81heGZne9cz++u4lXRn+dcrh2etOtcz0SbteTYJ2/trmyHBrXzTxzvfYkdI/Lk/ueAwAAAABoLiI0JyfjIaREgSgNvULa1bR1eocOza3Lly7H4Vg67X1amWOa5juEycN1z67Nt/baTkjL8kZPL12Xw883CuFy7a+79GAMzW5WS0NzA7Ie1VCqu8b3LfHpOxYsR24a2ZZm+V4d5jMEAAAAAJfP2YdmFwQyXTWnLcZp+AwkIblpev5kXFrbpOu2dBf11/buerfh1uUrj3cIlgW2+euBW5mfrw85Y5irBJ6++27LNirPd4ftvGC+A8lNuY4x3/EmYNvNpruNrmk+dmjOb1uPe12We7Xu1q41uDQvvRyVu3ETmgEAAADgCJx/aM6RnCjLiXc+WGS7zWqS6flh8kie+NpKHwT0CXoLrcs3juduFDXcjKtyd+IFzAWdmEO1Mgtz8522Wp4iNO+wnRfM1+FafPV6HHe+vov9rqE5utZ4I+G0r7++c7W8JvWRf7PbNjCG39u1+ixNphlf09zfSK00XUIzAAAAAByBCwzNcnMh3eLrw0juXHs+NOem50/s0+7ZqqWwdsfpyTWercvXj7eePldX7srsb47UD2ie75RyiNRk7sC8B9X5SuiZvDYTmhdQnm/jdt4FF+L6ICzhePLiEec7XE4w3ghsCI5NoTkiF051EE1a0QtMrmveE7dccqf7hmuawyO4AAAAAABmuLDQrO7GO9DakqspTa9MOYjVaF0+P15u+vX1aKN12actv/tTnq90AdfrdLrQnHvtENvZEW5ENpnWEec7hNN8aA7zPFhorr0/EN1QTLZHuKmYbw1X4bd3s6589tRyuW3mfqBYdxvXNT0g3+vDfIYAAAAA4PK5oNAsJ9T6RD5QvlY0uaZ5fKUyvTLlIFajdfnKLdI6MOxC27LrcLQ/xfnOtZjvGZ6L8z3ydh7RdT/WfGU+fYAdWoCjUHuU0DxeS52lb3F3j/6SgDx5JFV53uPypWy38gi48Ec/fWm1d9M63DX4AAAAAHBdXEhozrVITnHhMzlp1qElMD89/6zfdJz8fObJv08vn/47IhtkllEOkRG5RyLtSdN8B07R0nyE7exaVdN5Tet+6PnKjer6a6PDe8NlBYXu04cLzbXtK/heHMllD47yvGuhecRvRzfv6Jpm+c4Wrw0HAAAAAChwAaG5FHC300f8uFZLFbayAbBletFJuR6n1rpWo3H5fJfTNFDUA0obTdPILeeeNM134BSh+dDbuf+8JNNLP0eHna8n914ZJuFcbg4W50gJ2f7vcnCdhObtpvNfizE0yzXYvuV4Og3pfl0tm3RZd8tTnndLaJ70zpjcCMwvY/ZHCQAAAACAAmcemn23041cD6l0j4JSJ8fTrs5pYFk0vT44jIEjd43qMuaXz43lr3uN5uNvFLVvkJTlL3VVH/Ghbt95xbTNd6D/ISHZLIHmu0nPzXfhdp6Zr9tu+vOSDciHna+Qhmb/OfdDcnfx7ocny9YTQnP/rGX//eiXw/0djzp+hv3du6fINORO2+7RU8PGKc+7Hpr9d3DSgp7cPVvW13cJp9EZAAAAAFo489DcB4yCaZDog214PbpDsWfZ9CTMuBPwYXppKFjG3PIF/I2MhmXbMwD4IKzWtxQmD9jSvGi+2dpkglVriNTTys53wXZume/kMVL+85Kf3mHnq7v++27K4+sh0Kffhcz2FVxolnC67m77z4N0Pc8vga/baiPhOIquw/rlHqfV9ybI3Qis2JOj0IqchGY3sG/5l23rlx0AAAAAoMSZh2YAqNO3qPdJM3tdb3zdr/shaNWtK70mwo8OIbzGLctZwo8F8fTkbt7VoK2Dbv9KrqXZtXgXfljIhubwkixD7k0AAAAAACOEZoCrIL1+OWYafH2rbRKuB5Y/is0F26FL+BzlO9en6yCXT8R/K+QGbMUeGwAAAAAA8xCaAQAAAAAAAAoQmgEAAAAAAAAKEJoBAAAAAAAAChCaAQAAAAAAAAocIzR/73vfIzQDAAAAAADA+UNoBgAAAAAAAChAaAYAAAAAAAAoQGgGAAAAAAAAKEBoBgAAAAAAAChAaAYAAAAAAAAoQGgGAAAAAAAAKEBoBgAAAAAAAChAaAYAAAAAAAAoQGgGAAAAAAAAKEBoBgAAAAAAAChAaAYAAAAAAAAoQGgGAAAAAAAAKEBoBgAAAAAAAChAaAYAAAAAAAAoQGgGAAAAAAAAKEBoBgAAAAAAAChwjNAs47755puEZgAAAAAAADhvCM0AAAAAAAAABQjNAAAAAAAAAAUIzQAAAAAAAAAFCM0AAAAAAAAABQjNAAAAAAAAAAUIzQAAAAAAAAAFCM0AAAAAAAAABQjNAAAAAAAAAAUIzQAAAAAAAAAFCM0AAAAAAAAABQjNAAAAAAAAAAUIzQAAAAAAAAAFCM0AAAAAAAAABQjNAAAAAAAAAAUIzQAAAAAAAAAFCM0AAAAAAAAABQjNAAAAAAAAAAUIzQAAAAAAAAAFCM0AAAAAAAAABQjNAAAAAAAAAAUIzQAAAAAAAAAFCM0AAAAAAAAABQjNAAAAAAAAAAUIzQAAAAAAAAAFCM0AAAAAAAAABQjNAAAAAAAAAAUIzQAAAAAAAAAFCM0AAAAAAAAABQjNAAAAAAAAAAUIzQAAAAAAAAAFCM0AAAAAAAAABd57770kn+ZszbZHC82ffvpp96Uvfan74he/iIiIiIiIiHh0JYNKFtX5NGdrtj1aaEZERERERES0amu2JTQjIiIiIiLi1dmabUNo/v73v09oRkRERERExOuwNdsSmhEREREREfHqbM22hGZERERERES8OluzLaEZERERERERr87WbEtoRkRERERExKuzNdsSmhEREREREfHqbM22O4VmRERERERExHNX592ci0MzIiIiIiIi4rVIaEZEREREREQs+Gu/9msuNL/55puEZkRERERERMTYSWj+4IMPkhEQERERERERr1HJyF/72te6N954w4fm733ve8lIiIiIiIiIiNeotDB/4xvfcKH5rbfe6m5+//d/PxkJERERERER8Rr99re/3f2Lf/Ev3E3A3n777e7m9va2+9GPfpSMiIiIiIiIiHhNvvfee+565j/8wz90XbNdS/Pv/M7vuKZnPTIiIiIiIiLiNfl7v/d73bNnz4brmV1L87e+9a3uq1/9qgvOtDgjIiIiIiLitSktzL/7u7/b/fZv/3Yn9/2SrtnSyvyDH/yg+/8DMRy0O7cC2pgAAAAASUVORK5CYII=;" parent="1" vertex="1">
          <mxGeometry x="1110" y="420" width="1310.05" height="1030" as="geometry" />
        </mxCell>
        <mxCell id="WGUbwcwpNBQSmtZrBVuz-2" value="&lt;span style=&quot;font-size: 36px;&quot;&gt;USB hub（多路串口）&lt;/span&gt;" style="rounded=0;whiteSpace=wrap;html=1;" parent="1" vertex="1">
          <mxGeometry x="1560.03" y="1450" width="409.98" height="80" as="geometry" />
        </mxCell>
        <mxCell id="WGUbwcwpNBQSmtZrBVuz-3" value="&lt;font style=&quot;font-size: 36px;&quot;&gt;SCU70C辅助板&lt;/font&gt;" style="rounded=0;whiteSpace=wrap;html=1;" parent="1" vertex="1">
          <mxGeometry x="1600.02" y="1620" width="330" height="80" as="geometry" />
        </mxCell>
        <mxCell id="WGUbwcwpNBQSmtZrBVuz-4" value="&lt;font style=&quot;font-size: 36px;&quot;&gt;待测板&lt;span style=&quot;color: rgba(0, 0, 0, 0); font-family: monospace; font-size: 0px; text-align: start; text-wrap-mode: nowrap;&quot;&gt;%3CmxGraphModel%3E%3Croot%3E%3CmxCell%20id%3D%220%22%2F%3E%3CmxCell%20id%3D%221%22%20parent%3D%220%22%2F%3E%3CmxCell%20id%3D%222%22%20value%3D%22%26lt%3Bfont%20style%3D%26quot%3Bfont-size%3A%2036px%3B%26quot%3B%26gt%3BSCU70C%E8%BE%85%E5%8A%A9%E6%9D%BF%26lt%3B%2Ffont%26gt%3B%22%20style%3D%22rounded%3D0%3BwhiteSpace%3Dwrap%3Bhtml%3D1%3B%22%20vertex%3D%221%22%20parent%3D%221%22%3E%3CmxGeometry%20x%3D%221600.02%22%20y%3D%221620%22%20width%3D%22330%22%20height%3D%2280%22%20as%3D%22geometry%22%2F%3E%3C%2FmxCell%3E%3C%2Froot%3E%3C%2FmxGraphModel%3E&lt;/span&gt;SCU50B-1&lt;/font&gt;" style="rounded=0;whiteSpace=wrap;html=1;" parent="1" vertex="1">
          <mxGeometry x="1420" y="1780" width="330" height="80" as="geometry" />
        </mxCell>
        <mxCell id="WGUbwcwpNBQSmtZrBVuz-5" value="&lt;font style=&quot;font-size: 36px;&quot;&gt;待测板&lt;span style=&quot;color: rgba(0, 0, 0, 0); font-family: monospace; font-size: 0px; text-align: start; text-wrap-mode: nowrap;&quot;&gt;%3CmxGraphModel%3E%3Croot%3E%3CmxCell%20id%3D%220%22%2F%3E%3CmxCell%20id%3D%221%22%20parent%3D%220%22%2F%3E%3CmxCell%20id%3D%222%22%20value%3D%22%26lt%3Bfont%20style%3D%26quot%3Bfont-size%3A%2036px%3B%26quot%3B%26gt%3BSCU70C%E8%BE%85%E5%8A%A9%E6%9D%BF%26lt%3B%2Ffont%26gt%3B%22%20style%3D%22rounded%3D0%3BwhiteSpace%3Dwrap%3Bhtml%3D1%3B%22%20vertex%3D%221%22%20parent%3D%221%22%3E%3CmxGeometry%20x%3D%221600.02%22%20y%3D%221620%22%20width%3D%22330%22%20height%3D%2280%22%20as%3D%22geometry%22%2F%3E%3C%2FmxCell%3E%3C%2Froot%3E%3C%2FmxGraphModel%3E&lt;/span&gt;SCU50B-2&lt;/font&gt;" style="rounded=0;whiteSpace=wrap;html=1;" parent="1" vertex="1">
          <mxGeometry x="1810" y="1780" width="330" height="80" as="geometry" />
        </mxCell>
        <mxCell id="WGUbwcwpNBQSmtZrBVuz-8" value="" style="endArrow=none;html=1;rounded=0;entryX=0.5;entryY=1;entryDx=0;entryDy=0;strokeWidth=8;" parent="1" target="WGUbwcwpNBQSmtZrBVuz-2" edge="1">
          <mxGeometry width="50" height="50" relative="1" as="geometry">
            <mxPoint x="1764.19" y="1620" as="sourcePoint" />
            <mxPoint x="1764.19" y="1540" as="targetPoint" />
          </mxGeometry>
        </mxCell>
        <mxCell id="WGUbwcwpNBQSmtZrBVuz-9" value="" style="endArrow=none;html=1;rounded=0;entryX=0.5;entryY=1;entryDx=0;entryDy=0;strokeWidth=8;" parent="1" edge="1">
          <mxGeometry width="50" height="50" relative="1" as="geometry">
            <mxPoint x="1690" y="1790" as="sourcePoint" />
            <mxPoint x="1690.81" y="1700" as="targetPoint" />
          </mxGeometry>
        </mxCell>
        <mxCell id="WGUbwcwpNBQSmtZrBVuz-10" value="" style="endArrow=none;html=1;rounded=0;entryX=0.5;entryY=1;entryDx=0;entryDy=0;strokeWidth=8;" parent="1" edge="1">
          <mxGeometry width="50" height="50" relative="1" as="geometry">
            <mxPoint x="1870" y="1790" as="sourcePoint" />
            <mxPoint x="1870.81" y="1700" as="targetPoint" />
          </mxGeometry>
        </mxCell>
        <mxCell id="WGUbwcwpNBQSmtZrBVuz-11" value="电源" style="rounded=1;whiteSpace=wrap;html=1;" parent="1" vertex="1">
          <mxGeometry x="2700" y="270" width="90" height="40" as="geometry" />
        </mxCell>
        <mxCell id="WGUbwcwpNBQSmtZrBVuz-12" value="12V" style="rounded=1;whiteSpace=wrap;html=1;" parent="1" vertex="1">
          <mxGeometry x="2700" y="310" width="90" height="20" as="geometry" />
        </mxCell>
        <mxCell id="WGUbwcwpNBQSmtZrBVuz-13" value="GND" style="rounded=1;whiteSpace=wrap;html=1;" parent="1" vertex="1">
          <mxGeometry x="2700" y="330" width="90" height="20" as="geometry" />
        </mxCell>
        <mxCell id="WGUbwcwpNBQSmtZrBVuz-14" value="辅助板" style="rounded=1;whiteSpace=wrap;html=1;" parent="1" vertex="1">
          <mxGeometry x="2870" y="270" width="90" height="40" as="geometry" />
        </mxCell>
        <mxCell id="WGUbwcwpNBQSmtZrBVuz-15" value="P1-35-VCC" style="rounded=1;whiteSpace=wrap;html=1;" parent="1" vertex="1">
          <mxGeometry x="2870" y="310" width="90" height="20" as="geometry" />
        </mxCell>
        <mxCell id="WGUbwcwpNBQSmtZrBVuz-16" value="P1-34-GND" style="rounded=1;whiteSpace=wrap;html=1;" parent="1" vertex="1">
          <mxGeometry x="2870" y="330" width="90" height="20" as="geometry" />
        </mxCell>
        <mxCell id="WGUbwcwpNBQSmtZrBVuz-17" value="SCU50B" style="rounded=1;whiteSpace=wrap;html=1;" parent="1" vertex="1">
          <mxGeometry x="3039" y="270" width="90" height="40" as="geometry" />
        </mxCell>
        <mxCell id="WGUbwcwpNBQSmtZrBVuz-18" value="VCC" style="rounded=1;whiteSpace=wrap;html=1;" parent="1" vertex="1">
          <mxGeometry x="3039" y="310" width="90" height="20" as="geometry" />
        </mxCell>
        <mxCell id="WGUbwcwpNBQSmtZrBVuz-19" value="GND" style="rounded=1;whiteSpace=wrap;html=1;" parent="1" vertex="1">
          <mxGeometry x="3039" y="330" width="90" height="20" as="geometry" />
        </mxCell>
        <mxCell id="WGUbwcwpNBQSmtZrBVuz-20" value="" style="endArrow=none;html=1;rounded=0;exitX=1;exitY=0.5;exitDx=0;exitDy=0;" parent="1" source="WGUbwcwpNBQSmtZrBVuz-12" edge="1">
          <mxGeometry width="50" height="50" relative="1" as="geometry">
            <mxPoint x="2800" y="319.58000000000004" as="sourcePoint" />
            <mxPoint x="2870" y="319.58000000000004" as="targetPoint" />
          </mxGeometry>
        </mxCell>
        <mxCell id="WGUbwcwpNBQSmtZrBVuz-24" value="" style="endArrow=none;html=1;rounded=0;exitX=1;exitY=0.5;exitDx=0;exitDy=0;" parent="1" edge="1">
          <mxGeometry width="50" height="50" relative="1" as="geometry">
            <mxPoint x="2790" y="339.99999999999994" as="sourcePoint" />
            <mxPoint x="2870" y="339.58" as="targetPoint" />
          </mxGeometry>
        </mxCell>
        <mxCell id="WGUbwcwpNBQSmtZrBVuz-25" value="" style="endArrow=none;html=1;rounded=0;exitX=1;exitY=0.5;exitDx=0;exitDy=0;" parent="1" edge="1">
          <mxGeometry width="50" height="50" relative="1" as="geometry">
            <mxPoint x="2960" y="339.99999999999994" as="sourcePoint" />
            <mxPoint x="3040" y="339.58" as="targetPoint" />
          </mxGeometry>
        </mxCell>
        <mxCell id="WGUbwcwpNBQSmtZrBVuz-26" value="" style="endArrow=none;html=1;rounded=0;exitX=1;exitY=0.5;exitDx=0;exitDy=0;" parent="1" edge="1">
          <mxGeometry width="50" height="50" relative="1" as="geometry">
            <mxPoint x="2960" y="319.99999999999994" as="sourcePoint" />
            <mxPoint x="3040" y="319.58" as="targetPoint" />
          </mxGeometry>
        </mxCell>
        <mxCell id="WGUbwcwpNBQSmtZrBVuz-27" value="辅助板" style="rounded=1;whiteSpace=wrap;html=1;" parent="1" vertex="1">
          <mxGeometry x="2700" y="400" width="90" height="40" as="geometry" />
        </mxCell>
        <mxCell id="WGUbwcwpNBQSmtZrBVuz-28" value="P1-11-CAN-H" style="rounded=1;whiteSpace=wrap;html=1;" parent="1" vertex="1">
          <mxGeometry x="2700" y="440" width="90" height="20" as="geometry" />
        </mxCell>
        <mxCell id="WGUbwcwpNBQSmtZrBVuz-29" value="P1-12-CAN-L" style="rounded=1;whiteSpace=wrap;html=1;" parent="1" vertex="1">
          <mxGeometry x="2700" y="460" width="90" height="20" as="geometry" />
        </mxCell>
        <mxCell id="WGUbwcwpNBQSmtZrBVuz-30" value="待测板1" style="rounded=1;whiteSpace=wrap;html=1;" parent="1" vertex="1">
          <mxGeometry x="2870" y="400" width="90" height="40" as="geometry" />
        </mxCell>
        <mxCell id="WGUbwcwpNBQSmtZrBVuz-31" value="CAN-H" style="rounded=1;whiteSpace=wrap;html=1;" parent="1" vertex="1">
          <mxGeometry x="2870" y="440" width="90" height="20" as="geometry" />
        </mxCell>
        <mxCell id="WGUbwcwpNBQSmtZrBVuz-32" value="CAN-L" style="rounded=1;whiteSpace=wrap;html=1;" parent="1" vertex="1">
          <mxGeometry x="2870" y="460" width="90" height="20" as="geometry" />
        </mxCell>
        <mxCell id="WGUbwcwpNBQSmtZrBVuz-33" value="" style="endArrow=none;html=1;rounded=0;exitX=1;exitY=0.5;exitDx=0;exitDy=0;" parent="1" source="WGUbwcwpNBQSmtZrBVuz-28" edge="1">
          <mxGeometry width="50" height="50" relative="1" as="geometry">
            <mxPoint x="2800" y="449.58000000000004" as="sourcePoint" />
            <mxPoint x="2870" y="449.58000000000004" as="targetPoint" />
          </mxGeometry>
        </mxCell>
        <mxCell id="WGUbwcwpNBQSmtZrBVuz-34" value="" style="endArrow=none;html=1;rounded=0;exitX=1;exitY=0.5;exitDx=0;exitDy=0;" parent="1" edge="1">
          <mxGeometry width="50" height="50" relative="1" as="geometry">
            <mxPoint x="2790" y="469.99999999999994" as="sourcePoint" />
            <mxPoint x="2870" y="469.58" as="targetPoint" />
          </mxGeometry>
        </mxCell>
        <mxCell id="WGUbwcwpNBQSmtZrBVuz-35" value="辅助板" style="rounded=1;whiteSpace=wrap;html=1;" parent="1" vertex="1">
          <mxGeometry x="2700" y="500" width="90" height="40" as="geometry" />
        </mxCell>
        <mxCell id="WGUbwcwpNBQSmtZrBVuz-36" value="P1-14-CAN-H" style="rounded=1;whiteSpace=wrap;html=1;" parent="1" vertex="1">
          <mxGeometry x="2700" y="540" width="90" height="20" as="geometry" />
        </mxCell>
        <mxCell id="WGUbwcwpNBQSmtZrBVuz-37" value="P1-25-CAN-L" style="rounded=1;whiteSpace=wrap;html=1;" parent="1" vertex="1">
          <mxGeometry x="2700" y="560" width="90" height="20" as="geometry" />
        </mxCell>
        <mxCell id="WGUbwcwpNBQSmtZrBVuz-38" value="待测板2" style="rounded=1;whiteSpace=wrap;html=1;" parent="1" vertex="1">
          <mxGeometry x="2870" y="500" width="90" height="40" as="geometry" />
        </mxCell>
        <mxCell id="WGUbwcwpNBQSmtZrBVuz-39" value="CAN-H" style="rounded=1;whiteSpace=wrap;html=1;" parent="1" vertex="1">
          <mxGeometry x="2870" y="540" width="90" height="20" as="geometry" />
        </mxCell>
        <mxCell id="WGUbwcwpNBQSmtZrBVuz-40" value="CAN-L" style="rounded=1;whiteSpace=wrap;html=1;" parent="1" vertex="1">
          <mxGeometry x="2870" y="560" width="90" height="20" as="geometry" />
        </mxCell>
        <mxCell id="WGUbwcwpNBQSmtZrBVuz-41" value="" style="endArrow=none;html=1;rounded=0;exitX=1;exitY=0.5;exitDx=0;exitDy=0;" parent="1" source="WGUbwcwpNBQSmtZrBVuz-36" edge="1">
          <mxGeometry width="50" height="50" relative="1" as="geometry">
            <mxPoint x="2800" y="549.58" as="sourcePoint" />
            <mxPoint x="2870" y="549.58" as="targetPoint" />
          </mxGeometry>
        </mxCell>
        <mxCell id="WGUbwcwpNBQSmtZrBVuz-42" value="" style="endArrow=none;html=1;rounded=0;exitX=1;exitY=0.5;exitDx=0;exitDy=0;" parent="1" edge="1">
          <mxGeometry width="50" height="50" relative="1" as="geometry">
            <mxPoint x="2790" y="570" as="sourcePoint" />
            <mxPoint x="2870" y="569.5799999999999" as="targetPoint" />
          </mxGeometry>
        </mxCell>
        <mxCell id="WGUbwcwpNBQSmtZrBVuz-43" value="辅助板" style="rounded=1;whiteSpace=wrap;html=1;" parent="1" vertex="1">
          <mxGeometry x="3020" y="400" width="109" height="40" as="geometry" />
        </mxCell>
        <mxCell id="WGUbwcwpNBQSmtZrBVuz-44" value="P1-6-HS-MOUT1" style="rounded=1;whiteSpace=wrap;html=1;" parent="1" vertex="1">
          <mxGeometry x="3020" y="440" width="109" height="20" as="geometry" />
        </mxCell>
        <mxCell id="WGUbwcwpNBQSmtZrBVuz-45" value="P1-5-HS-MOUT2" style="rounded=1;whiteSpace=wrap;html=1;" parent="1" vertex="1">
          <mxGeometry x="3020" y="460" width="109" height="20" as="geometry" />
        </mxCell>
        <mxCell id="WGUbwcwpNBQSmtZrBVuz-46" value="待测板1" style="rounded=1;whiteSpace=wrap;html=1;" parent="1" vertex="1">
          <mxGeometry x="3209" y="400" width="90" height="40" as="geometry" />
        </mxCell>
        <mxCell id="WGUbwcwpNBQSmtZrBVuz-47" value="SEN1IN" style="rounded=1;whiteSpace=wrap;html=1;" parent="1" vertex="1">
          <mxGeometry x="3209" y="440" width="90" height="20" as="geometry" />
        </mxCell>
        <mxCell id="WGUbwcwpNBQSmtZrBVuz-48" value="SEN2IN" style="rounded=1;whiteSpace=wrap;html=1;" parent="1" vertex="1">
          <mxGeometry x="3209" y="460" width="90" height="20" as="geometry" />
        </mxCell>
        <mxCell id="WGUbwcwpNBQSmtZrBVuz-49" value="" style="endArrow=none;html=1;rounded=0;exitX=1;exitY=0.5;exitDx=0;exitDy=0;" parent="1" source="WGUbwcwpNBQSmtZrBVuz-44" edge="1">
          <mxGeometry width="50" height="50" relative="1" as="geometry">
            <mxPoint x="3139" y="449.58000000000004" as="sourcePoint" />
            <mxPoint x="3209" y="449.58000000000004" as="targetPoint" />
          </mxGeometry>
        </mxCell>
        <mxCell id="WGUbwcwpNBQSmtZrBVuz-50" value="" style="endArrow=none;html=1;rounded=0;exitX=1;exitY=0.5;exitDx=0;exitDy=0;" parent="1" edge="1">
          <mxGeometry width="50" height="50" relative="1" as="geometry">
            <mxPoint x="3129" y="470" as="sourcePoint" />
            <mxPoint x="3209" y="469.5799999999999" as="targetPoint" />
          </mxGeometry>
        </mxCell>
        <mxCell id="WGUbwcwpNBQSmtZrBVuz-51" value="辅助板" style="rounded=1;whiteSpace=wrap;html=1;" parent="1" vertex="1">
          <mxGeometry x="3020" y="500" width="109" height="40" as="geometry" />
        </mxCell>
        <mxCell id="WGUbwcwpNBQSmtZrBVuz-52" value="P1-8-HS-MOUT3" style="rounded=1;whiteSpace=wrap;html=1;" parent="1" vertex="1">
          <mxGeometry x="3020" y="540" width="109" height="20" as="geometry" />
        </mxCell>
        <mxCell id="WGUbwcwpNBQSmtZrBVuz-53" value="P1-7-HS-MOUT4" style="rounded=1;whiteSpace=wrap;html=1;" parent="1" vertex="1">
          <mxGeometry x="3020" y="560" width="109" height="20" as="geometry" />
        </mxCell>
        <mxCell id="WGUbwcwpNBQSmtZrBVuz-54" value="待测板2" style="rounded=1;whiteSpace=wrap;html=1;" parent="1" vertex="1">
          <mxGeometry x="3209" y="500" width="90" height="40" as="geometry" />
        </mxCell>
        <mxCell id="WGUbwcwpNBQSmtZrBVuz-55" value="SEN1IN" style="rounded=1;whiteSpace=wrap;html=1;" parent="1" vertex="1">
          <mxGeometry x="3209" y="540" width="90" height="20" as="geometry" />
        </mxCell>
        <mxCell id="WGUbwcwpNBQSmtZrBVuz-56" value="SEN2IN" style="rounded=1;whiteSpace=wrap;html=1;" parent="1" vertex="1">
          <mxGeometry x="3209" y="560" width="90" height="20" as="geometry" />
        </mxCell>
        <mxCell id="WGUbwcwpNBQSmtZrBVuz-57" value="" style="endArrow=none;html=1;rounded=0;exitX=1;exitY=0.5;exitDx=0;exitDy=0;" parent="1" source="WGUbwcwpNBQSmtZrBVuz-52" edge="1">
          <mxGeometry width="50" height="50" relative="1" as="geometry">
            <mxPoint x="3139" y="549.58" as="sourcePoint" />
            <mxPoint x="3209" y="549.58" as="targetPoint" />
          </mxGeometry>
        </mxCell>
        <mxCell id="WGUbwcwpNBQSmtZrBVuz-58" value="" style="endArrow=none;html=1;rounded=0;exitX=1;exitY=0.5;exitDx=0;exitDy=0;" parent="1" edge="1">
          <mxGeometry width="50" height="50" relative="1" as="geometry">
            <mxPoint x="3129" y="570" as="sourcePoint" />
            <mxPoint x="3209" y="569.5799999999999" as="targetPoint" />
          </mxGeometry>
        </mxCell>
        <mxCell id="xym4H3GfkLhNBRysbjDU-1" value="辅助板" style="rounded=1;whiteSpace=wrap;html=1;" vertex="1" parent="1">
          <mxGeometry x="2700" y="640" width="90" height="40" as="geometry" />
        </mxCell>
        <mxCell id="xym4H3GfkLhNBRysbjDU-2" value="12V" style="rounded=1;whiteSpace=wrap;html=1;" vertex="1" parent="1">
          <mxGeometry x="2700" y="680" width="90" height="20" as="geometry" />
        </mxCell>
        <mxCell id="xym4H3GfkLhNBRysbjDU-4" value="待测板1" style="rounded=1;whiteSpace=wrap;html=1;" vertex="1" parent="1">
          <mxGeometry x="2870" y="640" width="90" height="40" as="geometry" />
        </mxCell>
        <mxCell id="xym4H3GfkLhNBRysbjDU-5" value="P1-22-ADC1" style="rounded=1;whiteSpace=wrap;html=1;" vertex="1" parent="1">
          <mxGeometry x="2870" y="680" width="90" height="20" as="geometry" />
        </mxCell>
        <mxCell id="xym4H3GfkLhNBRysbjDU-7" value="" style="endArrow=none;html=1;rounded=0;exitX=1;exitY=0.5;exitDx=0;exitDy=0;" edge="1" parent="1" source="xym4H3GfkLhNBRysbjDU-2">
          <mxGeometry width="50" height="50" relative="1" as="geometry">
            <mxPoint x="2800" y="689.58" as="sourcePoint" />
            <mxPoint x="2870" y="689.58" as="targetPoint" />
          </mxGeometry>
        </mxCell>
        <mxCell id="xym4H3GfkLhNBRysbjDU-9" value="辅助板" style="rounded=1;whiteSpace=wrap;html=1;" vertex="1" parent="1">
          <mxGeometry x="2700" y="720" width="90" height="40" as="geometry" />
        </mxCell>
        <mxCell id="xym4H3GfkLhNBRysbjDU-10" value="12V" style="rounded=1;whiteSpace=wrap;html=1;" vertex="1" parent="1">
          <mxGeometry x="2700" y="760" width="90" height="20" as="geometry" />
        </mxCell>
        <mxCell id="xym4H3GfkLhNBRysbjDU-12" value="待测板2" style="rounded=1;whiteSpace=wrap;html=1;" vertex="1" parent="1">
          <mxGeometry x="2870" y="720" width="90" height="40" as="geometry" />
        </mxCell>
        <mxCell id="xym4H3GfkLhNBRysbjDU-13" value="P1-23-ADC2" style="rounded=1;whiteSpace=wrap;html=1;" vertex="1" parent="1">
          <mxGeometry x="2870" y="760" width="90" height="20" as="geometry" />
        </mxCell>
        <mxCell id="xym4H3GfkLhNBRysbjDU-15" value="" style="endArrow=none;html=1;rounded=0;exitX=1;exitY=0.5;exitDx=0;exitDy=0;" edge="1" parent="1" source="xym4H3GfkLhNBRysbjDU-10">
          <mxGeometry width="50" height="50" relative="1" as="geometry">
            <mxPoint x="2800" y="769.58" as="sourcePoint" />
            <mxPoint x="2870" y="769.58" as="targetPoint" />
          </mxGeometry>
        </mxCell>
      </root>
    </mxGraphModel>
  </diagram>
</mxfile>
